<svg width="22" height="22" viewBox="0 0 22 22" fill="none" xmlns="http://www.w3.org/2000/svg">
<path id="Vector" fill-rule="evenodd" clip-rule="evenodd" d="M11 0C4.92487 0 0 4.92487 0 11C0 17.0751 4.92487 22 11 22C17.0751 22 22 17.0751 22 11C22 4.92487 17.0751 0 11 0ZM15.7682 9.1402C16.1218 8.7159 16.0645 8.08534 15.6402 7.73177C15.2159 7.37821 14.5853 7.43553 14.2318 7.85981L9.9328 13.0186L7.70711 10.7929C7.31658 10.4024 6.68342 10.4024 6.29289 10.7929C5.90237 11.1834 5.90237 11.8166 6.29289 12.2071L9.2929 15.2071C9.4916 15.4058 9.7646 15.5117 10.0453 15.499C10.326 15.4862 10.5884 15.356 10.7682 15.1402L15.7682 9.1402Z" fill="#8F34FF"/>
</svg>
