<svg width="181" height="176" viewBox="0 0 181 176" fill="none" xmlns="http://www.w3.org/2000/svg">
<path d="M5.1416 92.0718C5.1416 90.4149 6.48475 89.0718 8.1416 89.0718H25.248C26.9048 89.0718 28.248 90.4149 28.248 92.0718V169.634C28.248 171.29 26.9048 172.634 25.248 172.634H8.1416C6.48475 172.634 5.1416 171.29 5.1416 169.634V92.0718Z" fill="#EFEFEF"/>
<path d="M121.521 159.156C123.178 159.156 124.521 160.499 124.521 162.156L124.521 172.329C124.521 173.986 123.178 175.329 121.521 175.329L8.13805 175.329C6.48119 175.329 5.13805 173.986 5.13805 172.329L5.13805 162.156C5.13805 160.499 6.4812 159.156 8.13805 159.156L121.521 159.156Z" fill="#EFEFEF"/>
<path d="M121.521 140.287C123.178 140.287 124.521 141.63 124.521 143.287L124.521 153.46C124.521 155.117 123.178 156.46 121.521 156.46L35.0955 156.46C33.4386 156.46 32.0955 155.117 32.0955 153.46L32.0955 143.287C32.0955 141.63 33.4386 140.287 35.0955 140.287L121.521 140.287Z" fill="#EFEFEF"/>
<path d="M124.521 169.634C124.521 171.291 123.178 172.634 121.521 172.634L104.415 172.634C102.758 172.634 101.415 171.291 101.415 169.634L101.415 145.983C101.415 144.326 102.758 142.983 104.415 142.983L121.521 142.983C123.178 142.983 124.521 144.326 124.521 145.983L124.521 169.634Z" fill="#EFEFEF"/>
<path d="M133.083 89.0718C134.74 89.0718 136.083 90.4149 136.083 92.0718L136.083 102.245C136.083 103.902 134.74 105.245 133.083 105.245L8.14687 105.245C6.49002 105.245 5.14688 103.902 5.14688 102.245L5.14688 92.0718C5.14688 90.4149 6.49002 89.0718 8.14688 89.0718L133.083 89.0718Z" fill="#EFEFEF"/>
<path d="M32.0957 92.0718C32.0957 90.4149 33.4388 89.0718 35.0957 89.0718H52.2021C53.8589 89.0718 55.2021 90.4149 55.2021 92.0718V134.592C55.2021 136.248 53.8589 137.592 52.2021 137.592H35.0957C33.4388 137.592 32.0957 136.248 32.0957 134.592V92.0718Z" fill="#EFEFEF"/>
<path d="M59.0581 92.0718C59.0581 90.4149 60.4013 89.0718 62.0581 89.0718H79.1645C80.8213 89.0718 82.1645 90.4149 82.1645 92.0718V134.592C82.1645 136.248 80.8213 137.592 79.1645 137.592H62.0581C60.4013 137.592 59.0581 136.248 59.0581 134.592V92.0718Z" fill="#EFEFEF"/>
<path d="M86.0205 92.0718C86.0205 90.4149 87.3637 89.0718 89.0205 89.0718H106.127C107.784 89.0718 109.127 90.4149 109.127 92.0718V134.592C109.127 136.248 107.784 137.592 106.127 137.592H89.0205C87.3637 137.592 86.0205 136.248 86.0205 134.592V92.0718Z" fill="#EFEFEF"/>
<path d="M112.975 92.0718C112.975 90.4149 114.318 89.0718 115.975 89.0718H133.081C134.738 89.0718 136.081 90.4149 136.081 92.0718V134.592C136.081 136.248 134.738 137.592 133.081 137.592H115.975C114.318 137.592 112.975 136.248 112.975 134.592V92.0718Z" fill="#EFEFEF"/>
<path d="M24.9357 32.4957C24.9605 31.4009 25.8611 30.5296 26.9561 30.5411L43.5688 30.7152C45.3564 30.7339 46.2233 32.9095 44.9384 34.1525L27.9492 50.5878C26.6643 51.8308 24.5186 50.8923 24.5591 49.105L24.9357 32.4957Z" fill="#EFEFEF"/>
<path d="M31.6884 84.983C30.9553 85.638 30.0066 86 29.0235 86H9.80563C6.22124 86 4.44611 81.6485 7.00777 79.1413L67.7021 19.7383C69.257 18.2166 71.743 18.2166 73.2979 19.7383L133.992 79.1413C136.554 81.6485 134.779 86 131.194 86H111.977C110.993 86 110.045 85.638 109.312 84.983L73.1649 52.691C71.647 51.3351 69.353 51.3351 67.8351 52.691L31.6884 84.983Z" fill="#EFEFEF"/>
<path fill-rule="evenodd" clip-rule="evenodd" d="M67.8301 69.9592C67.8301 69.4069 67.3824 68.9592 66.8301 68.9592H65.0626C64.5103 68.9592 64.0626 69.4069 64.0626 69.9592V71.7267C64.0626 72.279 64.5103 72.7267 65.0626 72.7267H66.8301C67.3824 72.7267 67.8301 72.279 67.8301 71.7267V69.9592ZM62.4253 66.322C61.873 66.322 61.4253 66.7697 61.4253 67.322V74.364C61.4253 74.9163 61.873 75.364 62.4253 75.364H69.4673C70.0196 75.364 70.4673 74.9163 70.4673 74.364V67.322C70.4673 66.7697 70.0196 66.322 69.4673 66.322H62.4253Z" fill="#EFEFEF"/>
<path fill-rule="evenodd" clip-rule="evenodd" d="M67.8301 76.7407C67.8301 76.1884 67.3824 75.7407 66.8301 75.7407H65.0626C64.5103 75.7407 64.0626 76.1884 64.0626 76.7407V78.5082C64.0626 79.0605 64.5103 79.5082 65.0626 79.5082H66.8301C67.3824 79.5082 67.8301 79.0605 67.8301 78.5082V76.7407ZM62.4253 73.1035C61.873 73.1035 61.4253 73.5512 61.4253 74.1035V81.1455C61.4253 81.6978 61.873 82.1455 62.4253 82.1455H69.4673C70.0196 82.1455 70.4673 81.6978 70.4673 81.1455V74.1035C70.4673 73.5512 70.0196 73.1035 69.4673 73.1035H62.4253Z" fill="#EFEFEF"/>
<path fill-rule="evenodd" clip-rule="evenodd" d="M74.6094 69.9592C74.6094 69.4069 74.1617 68.9592 73.6094 68.9592H71.8419C71.2896 68.9592 70.8419 69.4069 70.8419 69.9592V71.7267C70.8419 72.279 71.2896 72.7267 71.8419 72.7267H73.6094C74.1617 72.7267 74.6094 72.279 74.6094 71.7267V69.9592ZM69.2046 66.322C68.6523 66.322 68.2046 66.7697 68.2046 67.322V74.364C68.2046 74.9163 68.6523 75.364 69.2046 75.364H76.2466C76.7989 75.364 77.2466 74.9163 77.2466 74.364V67.322C77.2466 66.7697 76.7989 66.322 76.2466 66.322H69.2046Z" fill="#EFEFEF"/>
<path fill-rule="evenodd" clip-rule="evenodd" d="M74.6094 76.7407C74.6094 76.1884 74.1617 75.7407 73.6094 75.7407H71.8419C71.2896 75.7407 70.8419 76.1884 70.8419 76.7407V78.5082C70.8419 79.0605 71.2896 79.5082 71.8419 79.5082H73.6094C74.1617 79.5082 74.6094 79.0605 74.6094 78.5082V76.7407ZM69.2046 73.1035C68.6523 73.1035 68.2046 73.5512 68.2046 74.1035V81.1455C68.2046 81.6978 68.6523 82.1455 69.2046 82.1455H76.2466C76.7989 82.1455 77.2466 81.6978 77.2466 81.1455V74.1035C77.2466 73.5512 76.7989 73.1035 76.2466 73.1035H69.2046Z" fill="#EFEFEF"/>
<rect x="109" width="72" height="27" rx="13.5" fill="#E3CCFF"/>
<path d="M112 33.5L117.5 25.5L136 27L112 33.5Z" fill="#E3CCFF"/>
<path d="M139.079 6.64062V7.89062C139.064 9.17188 139.064 10.5781 138.673 12.3906L136.954 12.2656C137.103 11.5938 137.189 10.9922 137.251 10.4219L129.064 10.7812L128.845 9.35938L137.329 9.15625C137.345 8.77344 137.345 8.40625 137.345 8.04688H129.22V6.64062H139.079ZM140.564 13.0469V14.4375H127.751V13.0469H132.689V11.3438H134.423V13.0469H140.564ZM139.017 15.6406V20.3281H137.282V17.0156H129.079V15.6406H139.017ZM143.974 7.6875L143.802 15.6719H142.037L141.849 7.6875H143.974ZM142.927 19.125C142.256 19.125 141.709 18.5781 141.709 17.9062C141.709 17.25 142.256 16.7031 142.927 16.7031C143.568 16.7031 144.131 17.25 144.131 17.9062C144.131 18.5781 143.568 19.125 142.927 19.125ZM156.588 6.64062V7.89062C156.573 9.17188 156.573 10.5781 156.182 12.3906L154.463 12.2656C154.612 11.5938 154.698 10.9922 154.76 10.4219L146.573 10.7812L146.354 9.35938L154.838 9.15625C154.854 8.77344 154.854 8.40625 154.854 8.04688H146.729V6.64062H156.588ZM158.073 13.0469V14.4375H145.26V13.0469H150.198V11.3438H151.932V13.0469H158.073ZM156.526 15.6406V20.3281H154.791V17.0156H146.588V15.6406H156.526ZM161.483 7.6875L161.311 15.6719H159.546L159.358 7.6875H161.483ZM160.436 19.125C159.764 19.125 159.217 18.5781 159.217 17.9062C159.217 17.25 159.764 16.7031 160.436 16.7031C161.077 16.7031 161.639 17.25 161.639 17.9062C161.639 18.5781 161.077 19.125 160.436 19.125Z" fill="#8F34FF"/>
<rect x="109" width="72" height="27" rx="13.5" fill="#EFEFEF"/>
<path d="M112 33.5L117.5 25.5L136 27L112 33.5Z" fill="#EFEFEF"/>
<circle cx="128" cy="14" r="4" fill="#D9D9D9"/>
<circle cx="145" cy="14" r="4" fill="#D9D9D9"/>
<circle cx="162" cy="14" r="4" fill="#D9D9D9"/>
</svg>
