<svg width="36" height="46" viewBox="0 0 36 46" fill="none" xmlns="http://www.w3.org/2000/svg">
<path d="M2.80273 33.373C4.12109 33.3828 5.08789 34.1934 5.09766 35.3359C5.08789 36.4883 4.12109 37.2891 2.80273 37.2891C1.47461 37.2891 0.498047 36.4883 0.498047 35.3359C0.498047 34.1934 1.47461 33.3828 2.80273 33.373ZM2.80273 34.1543C1.99219 34.1445 1.39648 34.623 1.40625 35.3359C1.39648 36.0586 1.99219 36.5371 2.80273 36.5371C3.60352 36.5371 4.19922 36.0586 4.19922 35.3359C4.19922 34.623 3.60352 34.1445 2.80273 34.1543ZM7.57812 33.0801V37.5332H6.65039V33.0801H7.57812ZM7.57812 37.9336V40.1406H2.75391V40.9805H7.87109V41.7227H1.85547V39.4473H6.66016V38.6758H1.82617V37.9336H7.57812ZM15.9598 33.0801V38.2852H15.032V36.0684H13.4012V35.3066H15.032V33.0801H15.9598ZM13.0301 38.5293C14.866 38.5293 15.9891 39.1348 15.9891 40.1797C15.9891 41.2246 14.866 41.8203 13.0301 41.8301C11.1941 41.8203 10.0613 41.2246 10.0711 40.1797C10.0613 39.1348 11.1941 38.5293 13.0301 38.5293ZM13.0301 39.252C11.7508 39.252 10.9891 39.584 10.9891 40.1797C10.9891 40.7656 11.7508 41.1074 13.0301 41.0977C14.3094 41.1074 15.0711 40.7656 15.0711 40.1797C15.0711 39.584 14.3094 39.252 13.0301 39.252ZM11.7996 34.623C11.7996 35.7363 12.5906 36.8105 13.909 37.2598L13.4305 37.9922C12.449 37.6504 11.7264 36.9521 11.3504 36.0879C10.9646 37.0693 10.198 37.8555 9.15312 38.2363L8.66484 37.4941C10.0223 37.0254 10.8523 35.8438 10.8523 34.6328V34.4375H8.95781V33.6855H13.6746V34.4375H11.7996V34.623ZM27.1566 39.9746V40.7363H19.1488V39.9746H22.684V37.9043H23.6117V39.9746H27.1566ZM23.6215 34.6719C23.6215 36.0098 25.1352 37.2012 26.8051 37.4648L26.434 38.1973C25.0229 37.9287 23.7191 37.1084 23.1527 35.9609C22.5814 37.123 21.2875 37.9678 19.9008 38.2363L19.5199 37.5039C21.1508 37.2305 22.6547 36.0098 22.6547 34.6719V34.5938H19.8129V33.832H26.4633V34.5938H23.6215V34.6719ZM34.7863 33.0801V38.2852H33.8586V36.0684H32.2277V35.3066H33.8586V33.0801H34.7863ZM31.8566 38.5293C33.6926 38.5293 34.8156 39.1348 34.8156 40.1797C34.8156 41.2246 33.6926 41.8203 31.8566 41.8301C30.0207 41.8203 28.8879 41.2246 28.8977 40.1797C28.8879 39.1348 30.0207 38.5293 31.8566 38.5293ZM31.8566 39.252C30.5773 39.252 29.8156 39.584 29.8156 40.1797C29.8156 40.7656 30.5773 41.1074 31.8566 41.0977C33.1359 41.1074 33.8977 40.7656 33.8977 40.1797C33.8977 39.584 33.1359 39.252 31.8566 39.252ZM30.6262 34.623C30.6262 35.7363 31.4172 36.8105 32.7355 37.2598L32.257 37.9922C31.2756 37.6504 30.5529 36.9521 30.177 36.0879C29.7912 37.0693 29.0246 37.8555 27.9797 38.2363L27.4914 37.4941C28.8488 37.0254 29.6789 35.8438 29.6789 34.6328V34.4375H27.7844V33.6855H32.5012V34.4375H30.6262V34.623Z" fill="#9EA2B0"/>
<path d="M29.4375 2.33881L23.182 2.33883V0.781433C23.182 0.349691 22.8324 0 22.4008 0C21.9691 0 21.6195 0.349691 21.6195 0.781433V2.33844H15.3695V0.781433C15.3695 0.349691 15.0199 0 14.5883 0C14.1566 0 13.807 0.349691 13.807 0.781433V2.33844H7.5625C6.69961 2.33844 6 3.03821 6 3.9013V23.4371C6 24.3002 6.69961 25 7.5625 25H29.4375C30.3004 25 31 24.3002 31 23.4371V3.9013C31 3.03858 30.3004 2.33881 29.4375 2.33881ZM29.4375 23.4371H7.5625V3.9013H13.807V4.6886C13.807 5.12032 14.1566 5.47003 14.5883 5.47003C15.0199 5.47003 15.3695 5.12032 15.3695 4.6886V3.9017H21.6195V4.68899C21.6195 5.12073 21.9691 5.47042 22.4008 5.47042C22.8324 5.47042 23.182 5.12073 23.182 4.68899V3.9017H29.4375V23.4371ZM23.9688 12.4974H25.5312C25.9625 12.4974 26.3125 12.1474 26.3125 11.716V10.1531C26.3125 9.72179 25.9625 9.3717 25.5312 9.3717H23.9688C23.5375 9.3717 23.1875 9.72179 23.1875 10.1531V11.716C23.1875 12.1474 23.5375 12.4974 23.9688 12.4974ZM23.9688 18.7485H25.5312C25.9625 18.7485 26.3125 18.3988 26.3125 17.9671V16.4042C26.3125 15.9729 25.9625 15.6228 25.5312 15.6228H23.9688C23.5375 15.6228 23.1875 15.9729 23.1875 16.4042V17.9671C23.1875 18.3992 23.5375 18.7485 23.9688 18.7485ZM19.2812 15.6228H17.7188C17.2875 15.6228 16.9375 15.9729 16.9375 16.4042V17.9671C16.9375 18.3988 17.2875 18.7485 17.7188 18.7485H19.2812C19.7125 18.7485 20.0625 18.3988 20.0625 17.9671V16.4042C20.0625 15.9733 19.7125 15.6228 19.2812 15.6228ZM19.2812 9.3717H17.7188C17.2875 9.3717 16.9375 9.72179 16.9375 10.1531V11.716C16.9375 12.1474 17.2875 12.4974 17.7188 12.4974H19.2812C19.7125 12.4974 20.0625 12.1474 20.0625 11.716V10.1531C20.0625 9.72139 19.7125 9.3717 19.2812 9.3717ZM13.0312 9.3717H11.4688C11.0375 9.3717 10.6875 9.72179 10.6875 10.1531V11.716C10.6875 12.1474 11.0375 12.4974 11.4688 12.4974H13.0312C13.4625 12.4974 13.8125 12.1474 13.8125 11.716V10.1531C13.8125 9.72139 13.4625 9.3717 13.0312 9.3717ZM13.0312 15.6228H11.4688C11.0375 15.6228 10.6875 15.9729 10.6875 16.4042V17.9671C10.6875 18.3988 11.0375 18.7485 11.4688 18.7485H13.0312C13.4625 18.7485 13.8125 18.3988 13.8125 17.9671V16.4042C13.8125 15.9733 13.4625 15.6228 13.0312 15.6228Z" fill="#9EA2B0"/>
</svg>
