<svg width="22" height="22" viewBox="0 0 22 22" fill="none" xmlns="http://www.w3.org/2000/svg">
<mask id="mask0_74_3664" style="mask-type:alpha" maskUnits="userSpaceOnUse" x="0" y="0" width="22" height="22">
<rect width="22" height="22" fill="#8F34FF"/>
</mask>
<g mask="url(#mask0_74_3664)">
<path d="M18.877 8.99537C18.332 7.7228 17.4812 6.6027 16.3993 5.7334C15.3173 4.8641 14.0373 4.27217 12.6715 4.00958L13.9053 2.04687L12.654 1.26929L11.0261 3.85915C9.36795 3.8668 7.74828 4.35733 6.36734 5.27014C4.98641 6.18295 3.90469 7.47803 3.25582 8.99537C2.38668 9.0118 1.5587 9.36663 0.949888 9.98365C0.34107 10.6006 0 11.4304 0 12.2948C0 13.1592 0.34107 13.989 0.949888 14.606C1.5587 15.223 2.38668 15.5778 3.25582 15.5943C3.90745 17.1179 4.99539 18.4172 6.38418 19.3306C7.77298 20.2439 9.4013 20.7308 11.0664 20.7308C12.7314 20.7308 14.3597 20.2439 15.7486 19.3306C17.1373 18.4172 18.2253 17.1179 18.877 15.5943C19.746 15.5778 20.574 15.223 21.1829 14.606C21.7917 13.989 22.1327 13.1592 22.1327 12.2948C22.1327 11.4304 21.7917 10.6006 21.1829 9.98365C20.574 9.36663 19.746 9.0118 18.877 8.99537ZM20.1289 13.579C19.7915 13.9222 19.3315 14.1192 18.8489 14.1274L17.8933 14.1454L17.5192 15.0199C16.9809 16.2788 16.0821 17.3524 14.9348 18.1071C13.7874 18.8617 12.442 19.2641 11.0664 19.2641C9.69069 19.2641 8.34541 18.8617 7.19803 18.1071C6.05064 17.3524 5.15186 16.2788 4.61361 15.0199L4.23948 14.1454L3.28386 14.1274C2.80102 14.1184 2.34101 13.9214 2.00275 13.5787C1.66448 13.236 1.47496 12.775 1.47496 12.2948C1.47496 11.8146 1.66448 11.3537 2.00275 11.0109C2.34101 10.6682 2.80102 10.4712 3.28386 10.4622L4.23948 10.4441L4.61361 9.56966C5.15188 8.31085 6.05067 7.23728 7.19805 6.48263C8.34543 5.728 9.69069 5.32562 11.0664 5.32562C12.442 5.32562 13.7873 5.728 14.9348 6.48263C16.0821 7.23728 16.9809 8.31085 17.5192 9.56966L17.8933 10.4441L18.8489 10.4622C19.209 10.469 19.5592 10.5806 19.8563 10.783C20.1534 10.9856 20.3842 11.2702 20.5205 11.6018C20.6566 11.9334 20.6921 12.2973 20.6225 12.6488C20.5529 13.0001 20.3813 13.3235 20.1289 13.579Z" fill="#8F34FF"/>
<path d="M8.77689 10.4276H6.8689V12.3356H8.77689V10.4276Z" fill="#8F34FF"/>
<path d="M14.8824 10.4276H13.356V12.3356H14.8824V10.4276Z" fill="#8F34FF"/>
<path d="M10.8757 17.2963C11.3518 17.2963 11.8232 17.2075 12.263 17.0349C12.7028 16.8623 13.1024 16.6094 13.4391 16.2905C13.7757 15.9715 14.0427 15.5929 14.2249 15.1763C14.4071 14.7596 14.5009 14.313 14.5009 13.8619H7.25049C7.25049 14.313 7.34426 14.7596 7.52644 15.1763C7.70863 15.5929 7.97565 15.9715 8.31228 16.2905C8.99213 16.9345 9.91418 17.2963 10.8757 17.2963Z" fill="#8F34FF"/>
</g>
</svg>
