<svg width="334" height="57" viewBox="0 0 334 57" fill="none" xmlns="http://www.w3.org/2000/svg">
<rect width="334" height="57" rx="15" fill="#8F34FF"/>
<path d="M157.703 21.7969C159.781 21.7969 161.281 22.9688 161.281 24.6875C161.281 26.0781 160.258 27.1406 158.734 27.4688V28.5C159.844 28.4375 160.961 28.3359 162 28.1875L162.156 29.6406C159.234 30.1562 155.969 30.2188 153.594 30.2188L153.391 28.6406C154.375 28.6406 155.523 28.6328 156.734 28.5938V27.4844C155.164 27.1719 154.109 26.1016 154.125 24.6875C154.109 22.9688 155.609 21.7969 157.703 21.7969ZM157.703 23.2969C156.688 23.3125 155.969 23.7969 155.984 24.6875C155.969 25.5469 156.688 26.0625 157.703 26.0625C158.719 26.0625 159.406 25.5469 159.406 24.6875C159.406 23.7969 158.719 23.3125 157.703 23.2969ZM164.797 21.2344V25.7031H166.609V27.3594H164.797V32.0781H162.797V21.2344H164.797ZM165.281 33.5781V35.1719H155.266V31.125H157.266V33.5781H165.281ZM179.786 32.2188V33.8594H166.77V32.2188H170.098V30.0469H168.27V25.2656H176.317V23.7344H168.254V22.1406H178.286V26.8594H170.27V28.4375H178.614V30.0469H176.598V32.2188H179.786ZM172.036 32.2188H174.645V30.0469H172.036V32.2188Z" fill="white"/>
</svg>
