<svg width="334" height="57" viewBox="0 0 334 57" fill="none" xmlns="http://www.w3.org/2000/svg">
<rect width="334" height="57" rx="15" fill="#8F34FF"/>
<path d="M164.797 21.2344V25.2969H166.609V26.9375H164.797V30.8906H162.797V21.2344H164.797ZM153.266 29.0625C154.305 29.0625 155.492 29.0625 156.719 29.0312V28.2344C155.172 28.0156 154.203 27.2656 154.219 26.1719C154.203 24.8594 155.594 24.0469 157.703 24.0469C159.797 24.0469 161.172 24.8594 161.188 26.1719C161.172 27.2656 160.227 28.0078 158.703 28.2188V28.9531C159.875 28.9062 161.039 28.8125 162.141 28.6719L162.281 30.0469C159.281 30.5781 155.984 30.6094 153.469 30.6094L153.266 29.0625ZM164.797 31.4688V35.4375H162.797V33H155.078V31.4688H164.797ZM161.781 22.2656V23.7188H153.641V22.2656H156.719V21.1094H158.703V22.2656H161.781ZM157.703 25.375C156.688 25.375 156.109 25.625 156.125 26.1719C156.109 26.6875 156.688 26.9844 157.703 26.9844C158.703 26.9844 159.266 26.6875 159.281 26.1719C159.266 25.625 158.703 25.375 157.703 25.375ZM178.676 21.2344V31.4531H176.676V21.2344H178.676ZM179.051 33.5938V35.1875H169.145V30.4219H171.161V33.5938H179.051ZM170.879 22.1406C173.067 22.1406 174.77 23.6406 174.77 25.7188C174.77 27.8438 173.067 29.3281 170.879 29.3281C168.692 29.3281 166.989 27.8438 166.989 25.7188C166.989 23.6406 168.692 22.1406 170.879 22.1406ZM170.879 23.875C169.77 23.8594 168.926 24.5625 168.942 25.7188C168.926 26.9062 169.77 27.5938 170.879 27.5938C171.958 27.5938 172.801 26.9062 172.801 25.7188C172.801 24.5625 171.958 23.8594 170.879 23.875Z" fill="white"/>
</svg>
