<svg width="334" height="57" viewBox="0 0 334 57" fill="none" xmlns="http://www.w3.org/2000/svg">
<rect width="334" height="57" rx="15" fill="#8F34FF"/>
<path d="M124.438 32.1875V33.8125H111.422V32.1875H116.922V29.4062H118.906V32.1875H124.438ZM123.297 23.1719V24.7656H118.953C119.117 26.3438 120.727 27.9453 123.969 28.3438L123.25 29.8906C120.703 29.5703 118.867 28.5156 117.922 27.0469C116.961 28.5156 115.141 29.5703 112.594 29.8906L111.859 28.3438C115.102 27.9453 116.711 26.3438 116.891 24.7656H112.547V23.1719H116.922V21.3906H118.906V23.1719H123.297ZM137.067 21.2188V35.4375H135.176V28.2969H133.801V34.75H131.973V21.4531H133.801V26.7031H135.176V21.2188H137.067ZM130.473 22.8594V24.4688H127.176V30.5312C128.551 30.5234 129.77 30.4531 131.145 30.2031L131.286 31.8281C129.551 32.1562 128.036 32.2031 126.161 32.2188H125.176V22.8594H130.473ZM149.79 22.4062V23.6719C149.79 25.3906 149.806 27.3906 149.149 30.4688L147.196 30.2656C147.431 29.1875 147.571 28.2266 147.665 27.3594L139.415 27.8281L139.134 26.125L147.79 25.8438C147.821 25.1719 147.829 24.5625 147.837 24H139.603V22.4062H149.79ZM151.087 32.1719V33.7969H138.118V32.1719H142.759V28.7344H144.743V32.1719H151.087ZM163.06 27.7969V29.3906H152.998V22.4062H162.951V24.0156H154.966V27.7969H163.06ZM164.482 32.0625V33.7031H151.466V32.0625H164.482ZM180.991 28.2656V29.875H168.022V28.2656H173.491V27.0625H169.678V21.5625H171.647V22.8594H177.35V21.5625H179.334V27.0625H175.491V28.2656H180.991ZM179.412 30.8438V35.4375H177.428V32.4219H169.459V30.8438H179.412ZM171.647 25.5H177.35V24.3281H171.647V25.5ZM186.604 24.4375C186.589 26.9844 187.683 29.5625 189.964 30.6562L188.761 32.25C187.237 31.5 186.214 30.0938 185.62 28.375C185.003 30.2188 183.901 31.7266 182.292 32.5156L181.058 30.9062C183.464 29.7969 184.604 27.0781 184.604 24.4375V22.3125H186.604V24.4375ZM192.589 21.2188V26.7031H194.683V28.3906H192.589V35.4375H190.589V21.2188H192.589ZM205.937 21.2188V26.7812H208.031V28.4219H205.937V35.4375H203.968V21.2188H205.937ZM202.999 23.3438V24.9375H194.64V23.3438H197.859V21.4375H199.859V23.3438H202.999ZM198.859 25.7344C200.937 25.7344 202.484 27.1406 202.484 29.125C202.484 31.1094 200.937 32.5156 198.859 32.5156C196.765 32.5156 195.218 31.1094 195.218 29.125C195.218 27.1406 196.765 25.7344 198.859 25.7344ZM198.859 27.3438C197.859 27.3594 197.124 28.0312 197.124 29.125C197.124 30.2344 197.859 30.8906 198.859 30.875C199.859 30.8906 200.577 30.2344 200.577 29.125C200.577 28.0312 199.859 27.3594 198.859 27.3438ZM220.019 21.2188V35.4375H218.004V21.2188H220.019ZM215.754 22.7031C215.754 27.0156 214.238 30.5938 209.16 33L208.113 31.4062C211.785 29.6719 213.402 27.4219 213.723 24.2656H208.879V22.7031H215.754Z" fill="white"/>
</svg>
