<svg width="127" height="127" viewBox="0 0 127 127" fill="none" xmlns="http://www.w3.org/2000/svg">
<circle cx="63.5" cy="63.5" r="63.5" fill="#EFEFEF"/>
<path d="M64.0716 59.7815C66.5608 59.7815 68.9941 59.0434 71.0638 57.6605C73.1335 56.2776 74.7466 54.312 75.6992 52.0122C76.6517 49.7125 76.901 47.182 76.4154 44.7406C75.9297 42.2993 74.7311 40.0567 72.971 38.2966C71.2108 36.5365 68.9683 35.3378 66.5269 34.8522C64.0856 34.3666 61.555 34.6158 59.2553 35.5684C56.9556 36.521 54.99 38.1341 53.6071 40.2038C52.2242 42.2735 51.486 44.7067 51.486 47.1959C51.486 50.5338 52.812 53.735 55.1723 56.0953C57.5325 58.4556 60.7337 59.7815 64.0716 59.7815ZM64.0716 40.9031C65.3162 40.9031 66.5329 41.2722 67.5677 41.9637C68.6025 42.6551 69.4091 43.6379 69.8854 44.7878C70.3617 45.9377 70.4863 47.2029 70.2435 48.4236C70.0007 49.6443 69.4013 50.7656 68.5213 51.6456C67.6412 52.5257 66.52 53.125 65.2993 53.3678C64.0786 53.6106 62.8133 53.486 61.6635 53.0097C60.5136 52.5334 59.5308 51.7269 58.8393 50.692C58.1479 49.6572 57.7788 48.4405 57.7788 47.1959C57.7788 45.527 58.4418 43.9264 59.6219 42.7463C60.8021 41.5661 62.4027 40.9031 64.0716 40.9031Z" fill="#9EA2B0"/>
<path d="M64.0725 66.0742C58.2312 66.0742 52.6291 68.3947 48.4986 72.5251C44.3682 76.6556 42.0477 82.2577 42.0477 88.099C42.0477 88.9335 42.3792 89.7338 42.9693 90.3238C43.5594 90.9139 44.3596 91.2454 45.1941 91.2454C46.0286 91.2454 46.8289 90.9139 47.419 90.3238C48.009 89.7338 48.3405 88.9335 48.3405 88.099C48.3405 83.9266 49.998 79.9251 52.9483 76.9748C55.8986 74.0245 59.9001 72.367 64.0725 72.367C68.2449 72.367 72.2464 74.0245 75.1967 76.9748C78.147 79.9251 79.8045 83.9266 79.8045 88.099C79.8045 88.9335 80.136 89.7338 80.726 90.3238C81.3161 90.9139 82.1164 91.2454 82.9509 91.2454C83.7854 91.2454 84.5857 90.9139 85.1757 90.3238C85.7658 89.7338 86.0973 88.9335 86.0973 88.099C86.0973 82.2577 83.7768 76.6556 79.6464 72.5251C75.5159 68.3947 69.9138 66.0742 64.0725 66.0742Z" fill="#9EA2B0"/>
<circle cx="107" cy="107" r="17" fill="white"/>
<circle cx="107.5" cy="107.5" r="13.5" fill="#8E07FC"/>
<mask id="mask0_47_99" style="mask-type:alpha" maskUnits="userSpaceOnUse" x="98" y="98" width="19" height="19">
<rect x="98.7773" y="98.7778" width="17.9596" height="17.9596" fill="white"/>
</mask>
<g mask="url(#mask0_47_99)">
<path d="M101.756 110.87L111.326 101.3C112.108 100.518 113.375 100.518 114.156 101.3C114.938 102.081 114.938 103.348 114.156 104.13L104.586 113.7C104.368 113.918 104.09 114.067 103.787 114.127L100.714 114.742L101.328 111.669C101.389 111.366 101.538 111.088 101.756 110.87Z" stroke="white" stroke-width="1.5" stroke-linecap="round" stroke-linejoin="round"/>
<path d="M109.706 103.403L112.052 105.749" stroke="white" stroke-width="1.5"/>
</g>
</svg>
