<svg width="35" height="98" viewBox="0 0 35 98" fill="none" xmlns="http://www.w3.org/2000/svg">
<path d="M8.94531 70.3027V55.267C8.94171 54.8489 8.77306 54.4491 8.4761 54.1547C8.17914 53.8603 7.7779 53.6951 7.35974 53.6951H3.57349C3.31922 53.6932 3.06914 53.6301 2.84435 53.5113C2.61957 53.3924 2.42667 53.2212 2.28193 53.0121C2.13719 52.8031 2.04485 52.5623 2.01272 52.31C1.98058 52.0578 2.00958 51.8015 2.09727 51.5628L11.1323 26.9591C11.2451 26.6574 11.4464 26.3968 11.7098 26.2115C11.9732 26.0261 12.2865 25.9246 12.6085 25.9202H22.1767C22.5036 25.9189 22.8228 26.0196 23.0899 26.2083C23.3569 26.3969 23.5585 26.6641 23.6666 26.9727L32.5239 51.5765C32.6051 51.8232 32.6244 52.0861 32.5802 52.3421C32.536 52.5981 32.4296 52.8393 32.2703 53.0445C32.111 53.2497 31.9037 53.4126 31.6667 53.5189C31.4297 53.6252 31.1702 53.6716 30.911 53.6541H26.8104C26.4019 53.6788 26.0187 53.8604 25.741 54.161C25.4634 54.4616 25.3127 54.8579 25.3205 55.267V70.3027" stroke="#9EA2B0" stroke-width="4" stroke-linecap="round"/>
<path d="M17.244 18.1565C21.7055 18.1565 25.3222 14.5397 25.3222 10.0782C25.3222 5.61675 21.7055 2 17.244 2C12.7825 2 9.16577 5.61675 9.16577 10.0782C9.16577 14.5397 12.7825 18.1565 17.244 18.1565Z" stroke="#9EA2B0" stroke-width="4" stroke-linecap="round"/>
<path d="M27.6991 84.8574V97.2168H26.2362V90.9688H24.869V96.5879H23.4471V85.0898H24.869V89.7246H26.2362V84.8574H27.6991ZM19.1542 86.2793V92.8008C20.2206 92.7803 21.3895 92.6914 22.6815 92.4316L22.8319 93.7578C21.1639 94.0586 19.7557 94.1406 18.4432 94.1406H17.6229V86.2793H19.1542Z" fill="#9EA2B0"/>
<path d="M8.7324 85.7598C10.5918 85.7598 11.9316 87.4551 11.9453 90.1211C11.9316 92.8145 10.5918 94.4961 8.7324 94.4961C6.85936 94.4961 5.50584 92.8145 5.51951 90.1211C5.50584 87.4551 6.85936 85.7598 8.7324 85.7598ZM8.7324 87.127C7.69334 87.127 6.9824 88.2344 6.9824 90.1211C6.9824 92.0215 7.69334 93.1289 8.7324 93.1289C9.78514 93.1289 10.4824 92.0215 10.4824 90.1211C10.4824 88.2344 9.78514 87.127 8.7324 87.127ZM15.0898 84.8574V89.6016H16.9902V90.8867H15.0898V97.2168H13.5722V84.8574H15.0898Z" fill="#9EA2B0"/>
</svg>
