<svg width="36" height="36" viewBox="0 0 36 36" fill="none" xmlns="http://www.w3.org/2000/svg">
<path d="M31.8253 11.1437L27.4722 26.0632C26.9558 27.8329 25.0459 28.0635 24.1179 26.4763L19.3552 18.3308L15.1955 24.7625C14.3056 26.1384 12.5356 26.1468 11.6366 24.7747L9.73737 21.8759L8.86781 22.7676C7.95345 23.7053 6.40039 23.8993 5.28101 23.2183L3.06007 21.8671C4.77628 28.5165 10.8145 33.4286 18 33.4286C26.521 33.4286 33.4286 26.521 33.4286 18C33.4286 15.5372 32.8515 13.2092 31.8253 11.1437ZM29.9822 8.2798C27.1534 4.79695 22.8366 2.57143 18 2.57143C9.47904 2.57143 2.57143 9.47904 2.57143 18C2.57143 18.1895 2.57485 18.3783 2.58162 18.5662L6.61749 21.0215C6.71477 21.0806 6.94984 21.0513 7.02679 20.9724L8.11764 19.8537C9.18725 18.7568 10.8753 18.9205 11.7151 20.2023L13.4096 22.7888L17.6315 16.261C18.5378 14.8595 20.3271 14.8985 21.17 16.3401L25.4798 23.7111L29.9822 8.2798ZM18 36C8.05887 36 0 27.9411 0 18C0 8.05887 8.05887 0 18 0C27.9411 0 36 8.05887 36 18C36 27.9411 27.9411 36 18 36Z" fill="#8F34FF"/>
</svg>
