<svg width="22" height="22" viewBox="0 0 22 22" fill="none" xmlns="http://www.w3.org/2000/svg">
<mask id="mask0_343_1060" style="mask-type:alpha" maskUnits="userSpaceOnUse" x="0" y="0" width="22" height="22">
<rect x="0.5" y="0.5" width="21" height="21" fill="#D9D9D9" stroke="#8F34FF"/>
</mask>
<g mask="url(#mask0_343_1060)">
<path d="M7 3H4C2.89543 3 2 3.89543 2 5V8M7 3H15M7 3V1M7 3V5M2 8H20V5C20 3.89543 19.1046 3 18 3H15M2 8V19C2 20.1046 2.89543 21 4 21H9M15 3V1M15 3V5M16 14.25V16L17.25 17.25M21 16C21 18.7614 18.7614 21 16 21C13.2386 21 11 18.7614 11 16C11 13.2386 13.2386 11 16 11C18.7614 11 21 13.2386 21 16Z" stroke="#9EA2B0" stroke-width="2" stroke-linecap="round" stroke-linejoin="round"/>
</g>
</svg>
