<svg width="327" height="51" viewBox="0 0 327 51" fill="none" xmlns="http://www.w3.org/2000/svg">
<rect width="327" height="51" rx="13" fill="#8E07FC"/>
<path d="M111.247 19.8525V21.1562H108.464C108.486 22.709 109.628 24.1958 111.716 24.7891L110.896 26.0635C109.365 25.6094 108.259 24.6499 107.658 23.4268C107.065 24.7451 105.93 25.7852 104.348 26.2832L103.527 25.0088C105.644 24.3862 106.787 22.7969 106.823 21.1562H103.967V19.8525H111.247ZM114.47 19.0615V26.2393H112.829V19.0615H114.47ZM107.321 26.8252V28.1875H112.844V26.8252H114.47V32.1426H105.71V26.8252H107.321ZM107.321 30.8242H112.844V29.4473H107.321V30.8242ZM126.603 19.4131V20.585C126.588 21.7861 126.588 23.1045 126.222 24.8037L124.611 24.6865C124.75 24.0566 124.83 23.4927 124.889 22.958L117.213 23.2949L117.008 21.9619L124.962 21.7715C124.977 21.4126 124.977 21.0684 124.977 20.7314H117.36V19.4131H126.603ZM127.994 25.4189V26.7227H115.983V25.4189H120.612V23.8223H122.238V25.4189H127.994ZM126.544 27.8506V32.2451H124.918V29.1396H117.228V27.8506H126.544ZM139.117 19.4131V20.585C139.102 21.7861 139.102 23.1045 138.736 24.8037L137.124 24.6865C137.264 24.0566 137.344 23.4927 137.403 22.958L129.727 23.2949L129.522 21.9619L137.476 21.7715C137.491 21.4126 137.491 21.0684 137.491 20.7314H129.873V19.4131H139.117ZM140.508 25.4189V26.7227H128.496V25.4189H133.125V23.8223H134.751V25.4189H140.508ZM139.058 27.8506V32.2451H137.432V29.1396H129.742V27.8506H139.058ZM155.414 19.0762V26.7227H153.861V19.0762H155.414ZM152.777 19.3252V26.5762H151.239V23.5586H149.818V25.8438H144.603V20.0283H149.818V22.2109H151.239V19.3252H152.777ZM146.141 21.2881V24.6279H148.309V21.2881H146.141ZM155.414 27.2793V32.1426H146.493V27.2793H155.414ZM148.09 28.5537V30.8242H153.803V28.5537H148.09ZM167.708 19.0615V32.3184H166.097V25.1406H163.401V29.1104H157.103V20.0869H158.743V23.3828H161.805V20.0869H163.401V23.8076H166.097V19.0615H167.708ZM158.743 27.8066H161.805V24.6572H158.743V27.8066ZM184.328 29.4033V30.7363H172.228V29.4033H177.457V26.6641H179.069V29.4033H184.328ZM183.244 20.9805V22.2988H179.113C179.223 23.9468 180.944 25.4629 183.8 25.8438L183.2 27.1182C180.907 26.7959 179.142 25.7778 178.263 24.3203C177.384 25.7778 175.634 26.7959 173.341 27.1182L172.726 25.8438C175.597 25.4629 177.311 23.9468 177.443 22.2988H173.297V20.9805H177.457V19.2666H179.069V20.9805H183.244ZM196.138 19.0615V32.3037H194.586V25.5508H193.091V31.6299H191.597V19.3105H193.091V24.2471H194.586V19.0615H196.138ZM190.103 20.6289V21.9473H186.793V27.8359C188.235 27.8213 189.422 27.748 190.762 27.499L190.879 28.832C189.283 29.1543 187.891 29.1982 186.046 29.2129H185.152V20.6289H190.103ZM207.627 19.0615V24.335H209.663V25.6826H207.627V32.3037H206.015V19.0615H207.627ZM204.99 21.0977V22.4014H197.182V21.0977H200.317V19.252H201.943V21.0977H204.99ZM201.137 23.2656C203.042 23.2656 204.463 24.5547 204.463 26.3857C204.463 28.2168 203.042 29.4912 201.137 29.4912C199.204 29.4912 197.783 28.2168 197.798 26.3857C197.783 24.5547 199.204 23.2656 201.137 23.2656ZM201.137 24.5986C200.097 24.5986 199.35 25.3018 199.35 26.3857C199.35 27.4697 200.097 28.1582 201.137 28.1436C202.148 28.1582 202.895 27.4697 202.91 26.3857C202.895 25.3018 202.148 24.5986 201.137 24.5986ZM220.829 19.0615V32.3037H219.188V19.0615H220.829ZM216.874 20.4678C216.874 24.4082 215.351 27.7627 210.707 29.96L209.857 28.6562C213.322 27.0083 214.933 24.7671 215.219 21.7568H210.531V20.4678H216.874Z" fill="white"/>
</svg>
