<svg width="327" height="51" viewBox="0 0 327 51" fill="none" xmlns="http://www.w3.org/2000/svg">
<rect width="327" height="51" rx="13" fill="#8E07FC"/>
<path d="M92.2471 19.8525V21.1562H89.4639C89.4858 22.709 90.6284 24.1958 92.7158 24.7891L91.8955 26.0635C90.3647 25.6094 89.2588 24.6499 88.6582 23.4268C88.0649 24.7451 86.9297 25.7852 85.3477 26.2832L84.5273 25.0088C86.644 24.3862 87.7866 22.7969 87.8232 21.1562H84.9668V19.8525H92.2471ZM95.4697 19.0615V26.2393H93.8291V19.0615H95.4697ZM88.3213 26.8252V28.1875H93.8438V26.8252H95.4697V32.1426H86.71V26.8252H88.3213ZM88.3213 30.8242H93.8438V29.4473H88.3213V30.8242ZM107.603 19.4131V20.585C107.588 21.7861 107.588 23.1045 107.222 24.8037L105.611 24.6865C105.75 24.0566 105.83 23.4927 105.889 22.958L98.2131 23.2949L98.008 21.9619L105.962 21.7715C105.977 21.4126 105.977 21.0684 105.977 20.7314H98.3596V19.4131H107.603ZM108.994 25.4189V26.7227H96.9826V25.4189H101.612V23.8223H103.238V25.4189H108.994ZM107.544 27.8506V32.2451H105.918V29.1396H98.2277V27.8506H107.544ZM120.117 19.4131V20.585C120.102 21.7861 120.102 23.1045 119.736 24.8037L118.124 24.6865C118.264 24.0566 118.344 23.4927 118.403 22.958L110.727 23.2949L110.522 21.9619L118.476 21.7715C118.491 21.4126 118.491 21.0684 118.491 20.7314H110.873V19.4131H120.117ZM121.508 25.4189V26.7227H109.496V25.4189H114.125V23.8223H115.751V25.4189H121.508ZM120.058 27.8506V32.2451H118.432V29.1396H110.742V27.8506H120.058ZM129.851 21.7861C129.851 23.2217 130.921 24.6279 133.001 25.1992L132.254 26.459C130.73 26.0488 129.646 25.1553 129.06 24.0127C128.474 25.2725 127.368 26.2466 125.794 26.6934L125.017 25.4336C127.112 24.8477 128.225 23.3682 128.225 21.7861V21.7568H125.457V20.4678H128.225V19.0029H129.866V20.4678H132.62V21.7568H129.851V21.7861ZM135.535 19.0615V22.2549H137.381V23.6025H135.535V26.8545H133.909V19.0615H135.535ZM135.535 27.4111V32.1426H126.98V27.4111H135.535ZM128.592 28.7002V30.8242H133.924V28.7002H128.592ZM141.223 20.0283C142.424 20.0283 143.413 20.6948 144.006 21.8594H147.097V19.0615H148.708V32.3184H147.097V27.3086H144.123C143.552 28.627 142.504 29.3887 141.223 29.3887C139.23 29.3887 137.824 27.5869 137.824 24.7012C137.824 21.8447 139.23 20.0283 141.223 20.0283ZM141.223 21.4932C140.124 21.4932 139.377 22.6797 139.392 24.7012C139.377 26.7373 140.124 27.9238 141.223 27.9238C142.321 27.9238 143.054 26.7373 143.068 24.7012C143.054 22.6797 142.321 21.4932 141.223 21.4932ZM144.46 23.1924C144.555 23.6538 144.606 24.1592 144.606 24.7012C144.606 25.1626 144.57 25.5874 144.504 25.9902H147.097V23.1924H144.46ZM160.885 20.2334V21.4346C160.87 23.0459 160.9 24.8916 160.299 27.6895L158.702 27.5283C158.929 26.4663 159.069 25.5215 159.156 24.6719L151.349 25.1113L151.114 23.7197L159.244 23.4268C159.274 22.7383 159.281 22.123 159.288 21.5518H151.525V20.2334H160.885ZM162.189 29.3301V30.6777H150.118V29.3301H154.571V26.0635H156.183V29.3301H162.189ZM173.384 25.2725V26.5762H164.097V20.2188H173.282V21.5371H165.708V25.2725H173.384ZM174.732 29.2715V30.6191H162.632V29.2715H174.732ZM187.246 29.418V30.7656H175.146V29.418H180.361V27.2646H176.582V22.9287H184.199V21.2881H176.552V19.9697H185.81V24.2178H178.208V25.9316H186.118V27.2646H181.972V29.418H187.246ZM195.53 21.7861C195.53 23.2217 196.6 24.6279 198.68 25.1992L197.933 26.459C196.409 26.0488 195.325 25.1553 194.739 24.0127C194.153 25.2725 193.047 26.2466 191.473 26.6934L190.696 25.4336C192.791 24.8477 193.904 23.3682 193.904 21.7861V21.7568H191.136V20.4678H193.904V19.0029H195.545V20.4678H198.299V21.7568H195.53V21.7861ZM201.214 19.0615V22.2549H203.06V23.6025H201.214V26.8545H199.588V19.0615H201.214ZM201.214 27.4111V32.1426H192.659V27.4111H201.214ZM194.271 28.7002V30.8242H199.603V28.7002H194.271ZM206.902 20.0283C208.103 20.0283 209.092 20.6948 209.685 21.8594H212.776V19.0615H214.387V32.3184H212.776V27.3086H209.802C209.231 28.627 208.183 29.3887 206.902 29.3887C204.909 29.3887 203.503 27.5869 203.503 24.7012C203.503 21.8447 204.909 20.0283 206.902 20.0283ZM206.902 21.4932C205.803 21.4932 205.056 22.6797 205.071 24.7012C205.056 26.7373 205.803 27.9238 206.902 27.9238C208 27.9238 208.733 26.7373 208.747 24.7012C208.733 22.6797 208 21.4932 206.902 21.4932ZM210.139 23.1924C210.234 23.6538 210.285 24.1592 210.285 24.7012C210.285 25.1626 210.249 25.5874 210.183 25.9902H212.776V23.1924H210.139ZM226.168 19.0615V24.335H228.204V25.6826H226.168V32.3037H224.557V19.0615H226.168ZM223.532 21.0977V22.4014H215.724V21.0977H218.859V19.252H220.485V21.0977H223.532ZM219.679 23.2656C221.583 23.2656 223.004 24.5547 223.004 26.3857C223.004 28.2168 221.583 29.4912 219.679 29.4912C217.746 29.4912 216.325 28.2168 216.339 26.3857C216.325 24.5547 217.746 23.2656 219.679 23.2656ZM219.679 24.5986C218.639 24.5986 217.892 25.3018 217.892 26.3857C217.892 27.4697 218.639 28.1582 219.679 28.1436C220.69 28.1582 221.437 27.4697 221.452 26.3857C221.437 25.3018 220.69 24.5986 219.679 24.5986ZM239.371 19.0615V32.3037H237.73V19.0615H239.371ZM235.416 20.4678C235.416 24.4082 233.892 27.7627 229.249 29.96L228.399 28.6562C231.863 27.0083 233.475 24.7671 233.76 21.7568H229.073V20.4678H235.416Z" fill="white"/>
</svg>
