<svg width="327" height="57" viewBox="0 0 327 57" fill="none" xmlns="http://www.w3.org/2000/svg">
<rect width="327" height="57" rx="15" fill="#FEE500"/>
<g clip-path="url(#clip0_455_35)">
<path fill-rule="evenodd" clip-rule="evenodd" d="M32.0001 17.7333C25.9246 17.7333 21 21.5381 21 26.2306C21 29.1489 22.9047 31.7216 25.8052 33.2518L24.5848 37.7099C24.477 38.1039 24.9275 38.4178 25.2735 38.1896L30.623 34.6589C31.0745 34.7025 31.5332 34.7279 32.0001 34.7279C38.0751 34.7279 43 30.9233 43 26.2306C43 21.5381 38.0751 17.7333 32.0001 17.7333" fill="black"/>
</g>
<path d="M89.8438 22.5781C89.8281 26.9688 88.7656 30.625 83.4531 33.2812L82.3594 31.7812C84.7344 30.6016 86.1484 29.2812 86.9531 27.7031L82.75 28.0938L82.5 26.3906L87.5625 26.0781C87.7031 25.4844 87.8047 24.8438 87.8594 24.1719H83.25V22.5781H89.8438ZM93.6406 21.2188V26.6719H95.6562V28.3125H93.6406V35.4062H91.6406V21.2188H93.6406ZM103.192 22.5781C103.176 26.9688 102.114 30.625 96.8013 33.2812L95.7075 31.7812C98.0825 30.6016 99.4966 29.2812 100.301 27.7031L96.0981 28.0938L95.8481 26.3906L100.911 26.0781C101.051 25.4844 101.153 24.8438 101.208 24.1719H96.5981V22.5781H103.192ZM106.989 21.2188V26.6719H109.004V28.3125H106.989V35.4062H104.989V21.2188H106.989ZM115.603 21.9531C118.665 21.9531 120.946 23.5 120.962 25.8438C120.946 27.9844 119.142 29.4297 116.587 29.7188V32.1406H122.134V33.7812H109.118V32.1406H114.603V29.7031C112.056 29.4297 110.259 27.9766 110.259 25.8438C110.259 23.5 112.54 21.9531 115.603 21.9531ZM115.603 23.5469C113.618 23.5469 112.228 24.4219 112.228 25.8438C112.228 27.3438 113.618 28.1875 115.603 28.1875C117.603 28.1875 118.978 27.3438 118.993 25.8438C118.978 24.4219 117.603 23.5469 115.603 23.5469ZM135.482 32.2188V33.8594H122.466V32.2188H127.951V30.0781H123.966V25.2969H132.013V23.7344H123.951V22.1406H133.982V26.8594H125.966V28.4531H134.31V30.0781H129.935V32.2188H135.482ZM143.678 34.1562C141.194 34.1562 139.412 32.7812 139.366 30.8125H141.741C141.787 31.6562 142.6 32.2188 143.694 32.2188C144.819 32.2188 145.631 31.5781 145.616 30.6719C145.631 29.75 144.803 29.0938 143.475 29.0938H142.428V27.3594H143.475C144.584 27.3594 145.366 26.75 145.366 25.8594C145.366 25 144.709 24.4062 143.709 24.4062C142.709 24.4062 141.881 24.9688 141.85 25.8281H139.6C139.631 23.875 141.397 22.5312 143.709 22.5312C146.069 22.5312 147.647 23.9219 147.631 25.7188C147.647 26.9844 146.756 27.8906 145.491 28.1094V28.2031C147.147 28.4062 148.069 29.4219 148.053 30.8281C148.069 32.7656 146.225 34.1562 143.678 34.1562ZM161.776 32.1875V33.8125H148.761V32.1875H154.261V29.4062H156.245V32.1875H161.776ZM160.636 23.1719V24.7656H156.292C156.456 26.3438 158.065 27.9453 161.308 28.3438L160.589 29.8906C158.042 29.5703 156.206 28.5156 155.261 27.0469C154.3 28.5156 152.479 29.5703 149.933 29.8906L149.198 28.3438C152.44 27.9453 154.05 26.3438 154.229 24.7656H149.886V23.1719H154.261V21.3906H156.245V23.1719H160.636ZM169.359 22.3906V29.2188H162.531V22.3906H169.359ZM164.499 23.9844V27.6562H167.39V23.9844H164.499ZM173.39 21.2188V25.3125H175.312V26.9531H173.39V31.5938H171.39V21.2188H173.39ZM173.906 33.5938V35.1875H164.171V30.5781H166.156V33.5938H173.906ZM187.785 21.2188V35.4375H185.879V21.2188H187.785ZM184.816 21.4219V34.7812H182.941V28.0625H181.801C181.613 30.8594 180.426 32.5469 178.676 32.5469C176.801 32.5469 175.582 30.5781 175.582 27.375C175.582 24.1875 176.801 22.2344 178.676 22.2344C180.387 22.2344 181.558 23.8281 181.785 26.4844H182.941V21.4219H184.816ZM178.676 24.1094C177.879 24.1094 177.41 25.2031 177.426 27.375C177.41 29.5625 177.879 30.6406 178.676 30.625C179.488 30.6406 179.973 29.5625 179.973 27.375C179.973 25.2031 179.488 24.1094 178.676 24.1094ZM197.544 24.4375C197.544 27.0469 198.731 29.6719 201.137 30.6875L199.966 32.2812C198.341 31.5469 197.216 30.1328 196.575 28.375C195.927 30.2891 194.762 31.8359 193.028 32.625L191.825 30.9688C194.309 29.9219 195.512 27.2031 195.528 24.4375V22.3125H197.544V24.4375ZM203.919 21.2188V35.4688H201.903V21.2188H203.919ZM213.439 22.0469V23.6406H210.611C210.626 25.3047 211.611 27.0078 213.923 27.75L212.908 29.2969C211.329 28.7891 210.243 27.7734 209.626 26.5C208.993 27.8906 207.861 28.9922 206.204 29.5312L205.142 28C207.493 27.2422 208.564 25.4219 208.595 23.6406H205.689V22.0469H213.439ZM216.642 21.2188V24.6719H218.564V26.3281H216.642V29.7969H214.642V21.2188H216.642ZM216.642 30.4062V35.4375H214.642V31.9844H207.064V30.4062H216.642ZM229.928 21.2188V26.7812H232.021V28.4219H229.928V35.4375H227.959V21.2188H229.928ZM226.99 23.3438V24.9375H218.631V23.3438H221.849V21.4375H223.849V23.3438H226.99ZM222.849 25.7344C224.928 25.7344 226.474 27.1406 226.474 29.125C226.474 31.1094 224.928 32.5156 222.849 32.5156C220.756 32.5156 219.209 31.1094 219.209 29.125C219.209 27.1406 220.756 25.7344 222.849 25.7344ZM222.849 27.3438C221.849 27.3594 221.115 28.0312 221.115 29.125C221.115 30.2344 221.849 30.8906 222.849 30.875C223.849 30.8906 224.568 30.2344 224.568 29.125C224.568 28.0312 223.849 27.3594 222.849 27.3438ZM244.01 21.2188V35.4375H241.994V21.2188H244.01ZM239.744 22.7031C239.744 27.0156 238.229 30.5938 233.151 33L232.104 31.4062C235.776 29.6719 237.393 27.4219 237.713 24.2656H232.869V22.7031H239.744Z" fill="black"/>
<defs>
<clipPath id="clip0_455_35">
<rect width="22" height="22" fill="white" transform="translate(21 17)"/>
</clipPath>
</defs>
</svg>
