<svg width="393" height="852" viewBox="0 0 393 852" fill="none" xmlns="http://www.w3.org/2000/svg">
<rect width="393" height="852" fill="white"/>
<path d="M175.953 798.438C175.953 801.047 177.141 803.672 179.547 804.688L178.375 806.281C176.75 805.547 175.625 804.133 174.984 802.375C174.336 804.289 173.172 805.836 171.438 806.625L170.234 804.969C172.719 803.922 173.922 801.203 173.938 798.438V796.312H175.953V798.438ZM182.328 795.219V809.469H180.312V795.219H182.328ZM191.848 796.047V797.641H189.02C189.036 799.305 190.02 801.008 192.333 801.75L191.317 803.297C189.739 802.789 188.653 801.773 188.036 800.5C187.403 801.891 186.27 802.992 184.614 803.531L183.551 802C185.903 801.242 186.973 799.422 187.004 797.641H184.098V796.047H191.848ZM195.051 795.219V798.672H196.973V800.328H195.051V803.797H193.051V795.219H195.051ZM195.051 804.406V809.438H193.051V805.984H185.473V804.406H195.051ZM208.337 795.219V800.781H210.431V802.422H208.337V809.438H206.368V795.219H208.337ZM205.399 797.344V798.938H197.04V797.344H200.259V795.438H202.259V797.344H205.399ZM201.259 799.734C203.337 799.734 204.884 801.141 204.884 803.125C204.884 805.109 203.337 806.516 201.259 806.516C199.165 806.516 197.618 805.109 197.618 803.125C197.618 801.141 199.165 799.734 201.259 799.734ZM201.259 801.344C200.259 801.359 199.524 802.031 199.524 803.125C199.524 804.234 200.259 804.891 201.259 804.875C202.259 804.891 202.978 804.234 202.978 803.125C202.978 802.031 202.259 801.359 201.259 801.344ZM222.419 795.219V809.438H220.404V795.219H222.419ZM218.154 796.703C218.154 801.016 216.638 804.594 211.56 807L210.513 805.406C214.185 803.672 215.802 801.422 216.123 798.266H211.279V796.703H218.154Z" fill="white"/>
<path d="M128.43 92.6504V94.5625H124.348C124.38 96.8398 126.056 99.0205 129.117 99.8906L127.914 101.76C125.669 101.094 124.047 99.6865 123.166 97.8926C122.296 99.8262 120.631 101.352 118.311 102.082L117.108 100.213C120.212 99.2998 121.888 96.9688 121.942 94.5625H117.752V92.6504H128.43ZM133.156 91.4902V102.018H130.75V91.4902H133.156ZM122.672 102.877V104.875H130.772V102.877H133.156V110.676H120.309V102.877H122.672ZM122.672 108.742H130.772V106.723H122.672V108.742ZM150.651 91.4902V97.1836H153.358V99.1602H150.651V105.691H148.266V91.4902H150.651ZM151.424 108.592V110.525H138.211V104.209H140.596V108.592H151.424ZM140.789 92.7793C143.733 92.7793 146.01 94.8203 146.032 97.6777C146.01 100.492 143.733 102.555 140.789 102.555C137.846 102.555 135.526 100.492 135.547 97.6777C135.526 94.8203 137.846 92.7793 140.789 92.7793ZM140.789 94.8633C139.157 94.8633 137.868 95.959 137.889 97.6777C137.868 99.3535 139.157 100.449 140.789 100.449C142.422 100.449 143.69 99.3535 143.69 97.6777C143.69 95.959 142.422 94.8633 140.789 94.8633ZM159.186 92.1133C162.129 92.1133 164.321 93.9395 164.342 96.4961C164.321 99.0742 162.129 100.879 159.186 100.879C156.221 100.879 154.03 99.0742 154.03 96.4961C154.03 93.9395 156.221 92.1133 159.186 92.1133ZM159.186 94.0898C157.553 94.0898 156.35 95.0137 156.35 96.4961C156.35 98 157.553 98.9453 159.186 98.9453C160.819 98.9453 162.022 98 162.022 96.4961C162.022 95.0137 160.819 94.0898 159.186 94.0898ZM169.864 91.4902V101.309H167.458V91.4902H169.864ZM169.864 102.146V107.217H159.358V108.785H170.444V110.676H157.016V105.455H167.479V104.016H156.973V102.146H169.864ZM181.901 93.166V102.34H172.706V93.166H181.901ZM175.048 95.0781V100.449H179.559V95.0781H175.048ZM187.358 91.4902V97.1836H190.065V99.1816H187.358V105.67H184.973V91.4902H187.358ZM188.132 108.592V110.525H174.919V104.295H177.303V108.592H188.132ZM210.165 91.4902V99.2246H213.151V101.201H210.165V110.912H207.802V91.4902H210.165ZM206.298 94.4766V96.3887H194.847V94.4766H199.444V91.7695H201.829V94.4766H206.298ZM200.647 97.6562C203.44 97.6562 205.524 99.5469 205.524 102.232C205.524 104.918 203.44 106.787 200.647 106.787C197.812 106.787 195.728 104.918 195.749 102.232C195.728 99.5469 197.812 97.6562 200.647 97.6562ZM200.647 99.6113C199.122 99.6113 198.026 100.643 198.026 102.232C198.026 103.822 199.122 104.832 200.647 104.811C202.13 104.832 203.226 103.822 203.247 102.232C203.226 100.643 202.13 99.6113 200.647 99.6113ZM223.277 93.123V94.6699H227.187V91.5117H229.571V105.648H227.187V100.75H223.277V102.426H214.146V93.123H223.277ZM216.53 95.0137V100.557H220.913V95.0137H216.53ZM230.001 108.592V110.525H216.767V104.338H219.194V108.592H230.001ZM223.277 98.8379H227.187V96.625H223.277V98.8379ZM235.964 104.982C237.114 104.982 238.542 104.972 240.025 104.939V101.459H236.888V93.3164H245.203V95.2715H239.23V99.5469H245.374V101.459H242.302V104.854C243.57 104.8 244.816 104.703 245.912 104.574L246.041 106.293C242.882 106.852 238.843 106.959 236.308 106.959L235.964 104.982ZM253.066 91.4902V110.912H250.767V101.287H248.962V109.967H246.728V91.8555H248.962V99.332H250.767V91.4902H253.066ZM272.322 106.594V108.549H254.576V106.594H258.679V101.674C257.132 100.793 256.198 99.4072 256.209 97.6777C256.187 94.584 259.238 92.543 263.406 92.543C267.595 92.543 270.646 94.584 270.646 97.6777C270.646 99.375 269.744 100.739 268.24 101.631V106.594H272.322ZM263.406 94.4336C260.506 94.4336 258.529 95.6582 258.55 97.6777C258.529 99.6758 260.506 100.922 263.406 100.922C266.306 100.922 268.304 99.6758 268.304 97.6777C268.304 95.6582 266.306 94.4336 263.406 94.4336ZM261.043 106.594H265.812V102.533C265.071 102.705 264.265 102.791 263.406 102.791C262.568 102.791 261.773 102.705 261.043 102.555V106.594ZM276.926 93.4453L276.689 104.424H274.262L274.004 93.4453H276.926ZM275.486 109.172C274.562 109.172 273.81 108.42 273.81 107.496C273.81 106.594 274.562 105.842 275.486 105.842C276.367 105.842 277.14 106.594 277.14 107.496C277.14 108.42 276.367 109.172 275.486 109.172Z" fill="black"/>
<path d="M95.9081 138.672C95.9081 140.484 97.4238 142.094 99.4863 142.719L98.8613 143.688C97.2363 143.172 95.9316 142.055 95.2988 140.625C94.6894 142.156 93.3769 143.352 91.7206 143.922L91.08 142.953C93.1738 142.297 94.6738 140.578 94.6738 138.672V138.312H91.4238V137.312H99.1113V138.312H95.9081V138.672ZM102.377 136.375V143.891H101.158V136.375H102.377ZM94.5956 144.578V146.266H101.158V144.578H102.377V150.078H93.3769V144.578H94.5956ZM94.5956 149.078H101.158V147.25H94.5956V149.078ZM115.334 136.859V137.969C115.334 139.172 115.334 140.547 114.959 142.375L113.741 142.281C113.913 141.5 114.006 140.812 114.069 140.188L105.6 140.594L105.428 139.547L114.116 139.281C114.131 138.828 114.131 138.391 114.131 137.969V137.859H105.772V136.859H115.334ZM116.913 143.188V144.188H104.272V143.188H109.428V141.266H110.663V143.188H116.913ZM115.35 145.656V150.203H114.116V146.641H105.616V145.656H115.35ZM128.683 136.859V137.969C128.683 139.172 128.683 140.547 128.308 142.375L127.089 142.281C127.261 141.5 127.354 140.812 127.417 140.188L118.948 140.594L118.776 139.547L127.464 139.281C127.479 138.828 127.479 138.391 127.479 137.969V137.859H119.12V136.859H128.683ZM130.261 143.188V144.188H117.62V143.188H122.776V141.266H124.011V143.188H130.261ZM128.698 145.656V150.203H127.464V146.641H118.964V145.656H128.698ZM142.406 136.375V150.297H141.171V136.375H142.406ZM135.015 137.453C137.078 137.469 138.562 139.344 138.562 142.297C138.562 145.25 137.078 147.125 135.015 147.125C132.937 147.125 131.468 145.25 131.468 142.297C131.468 139.344 132.937 137.469 135.015 137.453ZM135.015 138.547C133.624 138.562 132.656 140.031 132.656 142.297C132.656 144.562 133.624 146.031 135.015 146.031C136.406 146.031 137.374 144.562 137.374 142.297C137.374 140.031 136.406 138.562 135.015 138.547ZM151.571 137.453C152.844 137.461 153.875 138.203 154.477 139.484H158.133V136.375H159.352V150.297H158.133V144.906H154.571C153.985 146.312 152.914 147.125 151.571 147.125C149.524 147.125 148.086 145.25 148.086 142.297C148.086 139.344 149.524 137.469 151.571 137.453ZM151.571 138.547C150.196 138.562 149.258 140.031 149.258 142.297C149.258 144.562 150.196 146.031 151.571 146.031C152.93 146.031 153.883 144.562 153.883 142.297C153.883 140.031 152.93 138.562 151.571 138.547ZM154.836 140.516C154.961 141.055 155.039 141.648 155.039 142.297C155.039 142.867 154.977 143.406 154.883 143.891H158.133V140.516H154.836ZM172.684 136.375V150.297H171.466V142.75H168.763V141.719H171.466V136.375H172.684ZM167.919 137.672V142.531H162.934V145.906C165.325 145.906 167.059 145.836 169.091 145.453L169.184 146.484C167.091 146.859 165.294 146.938 162.778 146.953H161.716V141.516H166.731V138.688H161.669V137.672H167.919ZM187.236 143.734V144.734H181.579V147.453H180.361V144.734H174.517V143.734H187.236ZM185.814 148.938V149.969H176.142V146.172H177.361V148.938H185.814ZM177.439 136.828V138.609H184.314V136.828H185.533V142.375H176.22V136.828H177.439ZM177.439 141.375H184.314V139.547H177.439V141.375ZM192.428 137.391C194.615 137.391 196.162 138.719 196.162 140.656C196.162 142.594 194.615 143.922 192.428 143.922C190.24 143.922 188.662 142.594 188.678 140.656C188.662 138.719 190.24 137.391 192.428 137.391ZM192.428 138.469C190.943 138.469 189.865 139.359 189.881 140.656C189.865 141.953 190.943 142.844 192.428 142.844C193.896 142.844 194.959 141.953 194.959 140.656C194.959 139.359 193.896 138.469 192.428 138.469ZM199.271 136.375V150.297H198.053V136.375H199.271ZM187.959 146.188C190.521 146.188 194.053 146.172 197.131 145.719L197.224 146.625C194.053 147.219 190.631 147.234 188.131 147.234L187.959 146.188ZM211.686 138.422C211.686 140.797 214.405 142.922 216.827 143.375L216.264 144.406C214.171 143.922 211.96 142.43 211.061 140.375C210.163 142.422 207.96 143.914 205.858 144.406L205.296 143.375C207.702 142.906 210.405 140.812 210.405 138.422V137.359H211.686V138.422ZM217.483 147.359V148.375H204.764V147.359H217.483ZM224.238 138.031C224.23 139.344 224.081 140.641 223.691 141.875H225.909V136.75H227.081V149.562H225.909V142.891H223.284C222.503 144.602 221.144 146.148 218.909 147.375L218.206 146.5C220.347 145.336 221.62 143.875 222.331 142.234L218.363 142.641L218.175 141.547L222.675 141.266C222.87 140.547 222.988 139.805 223.034 139.047H218.847V138.031H224.238ZM230.003 136.375V150.266H228.831V136.375H230.003ZM244.117 142.188V143.188H238.383V144.594H242.492V147.75H234.242V149.141H242.914V150.109H233.023V146.844H241.289V145.531H232.992V144.594H237.179V143.188H231.461V142.188H244.117ZM242.992 136.875V137.844H238.508C238.679 139.281 241 140.352 243.445 140.562L243.039 141.5C240.765 141.266 238.625 140.383 237.804 138.984C236.961 140.383 234.828 141.266 232.554 141.5L232.148 140.562C234.578 140.352 236.89 139.297 237.086 137.844H232.617V136.875H242.992ZM251.137 136.625C254.231 136.625 256.043 137.469 256.043 139.016C256.043 140.594 254.231 141.438 251.137 141.453C248.043 141.438 246.215 140.594 246.215 139.016C246.215 137.469 248.043 136.625 251.137 136.625ZM251.137 137.547C248.824 137.547 247.481 138.109 247.496 139.016C247.481 139.984 248.824 140.516 251.137 140.516C253.434 140.516 254.793 139.984 254.793 139.016C254.793 138.109 253.434 137.547 251.137 137.547ZM257.465 142.391V143.391H244.809V142.391H257.465ZM255.84 144.594V147.703H247.59V149.141H256.262V150.109H246.371V146.797H254.637V145.531H246.34V144.594H255.84ZM272.833 137.781V139.172C272.818 140.875 272.818 142.781 272.318 145.578L271.068 145.438C271.599 142.781 271.599 140.828 271.599 139.172V138.797H263.036V137.781H272.833ZM274.349 147.281V148.297H261.693V147.281H266.661V142.312H267.864V147.281H274.349ZM286.541 136.375V150.297H285.322V144.375H282.431V143.344H285.322V140.578H282.541V139.547H285.322V136.375H286.541ZM281.634 137.641V142.578H276.791V146C278.877 145.992 280.603 145.914 282.713 145.594L282.822 146.625C280.603 146.969 278.822 147.047 276.603 147.047H275.572V141.578H280.431V138.656H275.525V137.641H281.634ZM295.326 138.781V139.781H288.357V138.781H291.248V136.797H292.467V138.781H295.326ZM291.842 140.719C293.592 140.719 294.842 142.031 294.857 143.875C294.842 145.734 293.592 147.062 291.842 147.062C290.107 147.062 288.857 145.734 288.857 143.875C288.857 142.031 290.107 140.719 291.842 140.719ZM291.842 141.75C290.748 141.766 289.951 142.656 289.951 143.875C289.951 145.109 290.748 146 291.842 145.984C292.951 146 293.764 145.109 293.764 143.875C293.764 142.656 292.951 141.766 291.842 141.75ZM300.217 136.375V150.266H299.045V143.25H297.201V149.578H296.045V136.719H297.201V142.234H299.045V136.375H300.217ZM109.209 163.672C109.209 165.484 110.725 167.094 112.787 167.719L112.162 168.688C110.537 168.172 109.233 167.055 108.6 165.625C107.991 167.156 106.678 168.352 105.022 168.922L104.381 167.953C106.475 167.297 107.975 165.578 107.975 163.672V163.312H104.725V162.312H112.412V163.312H109.209V163.672ZM115.678 161.375V168.891H114.459V161.375H115.678ZM107.897 169.578V171.266H114.459V169.578H115.678V175.078H106.678V169.578H107.897ZM107.897 174.078H114.459V172.25H107.897V174.078ZM128.417 161.375V165.609H130.511V166.641H128.417V171.625H127.198V161.375H128.417ZM129.057 173.938V174.969H119.729V170.562H120.932V173.938H129.057ZM121.464 162.359C123.542 162.359 125.104 163.766 125.12 165.781C125.104 167.797 123.542 169.203 121.464 169.203C119.386 169.203 117.807 167.797 117.823 165.781C117.807 163.766 119.386 162.359 121.464 162.359ZM121.464 163.438C120.089 163.438 119.011 164.406 119.026 165.781C119.011 167.156 120.089 168.125 121.464 168.125C122.87 168.125 123.917 167.156 123.917 165.781C123.917 164.406 122.87 163.438 121.464 163.438ZM134.843 161.891C136.921 161.906 138.437 163.156 138.437 164.969C138.437 166.781 136.921 168.031 134.843 168.031C132.734 168.031 131.234 166.781 131.234 164.969C131.234 163.156 132.734 161.906 134.843 161.891ZM134.843 162.922C133.452 162.922 132.421 163.766 132.437 164.969C132.421 166.188 133.452 167.031 134.843 167.031C136.218 167.031 137.249 166.188 137.249 164.969C137.249 163.766 136.218 162.922 134.843 162.922ZM142.374 161.375V168.516H141.156V161.375H142.374ZM142.374 169.188V172.531H134.577V174.094H142.874V175.078H133.374V171.609H141.156V170.172H133.343V169.188H142.374ZM150.582 161.625C153.676 161.625 155.488 162.469 155.488 164.016C155.488 165.594 153.676 166.438 150.582 166.453C147.488 166.438 145.66 165.594 145.66 164.016C145.66 162.469 147.488 161.625 150.582 161.625ZM150.582 162.547C148.269 162.547 146.926 163.109 146.941 164.016C146.926 164.984 148.269 165.516 150.582 165.516C152.879 165.516 154.238 164.984 154.238 164.016C154.238 163.109 152.879 162.547 150.582 162.547ZM156.91 167.391V168.391H144.254V167.391H156.91ZM155.285 169.594V172.703H147.035V174.141H155.707V175.109H145.816V171.797H154.082V170.531H145.785V169.594H155.285ZM172.216 161.859V162.969C172.216 164.172 172.216 165.547 171.841 167.375L170.622 167.281C170.794 166.5 170.887 165.812 170.95 165.188L162.481 165.594L162.309 164.547L170.997 164.281C171.012 163.828 171.012 163.391 171.012 162.969V162.859H162.653V161.859H172.216ZM173.794 168.188V169.188H161.153V168.188H166.309V166.266H167.544V168.188H173.794ZM172.231 170.656V175.203H170.997V171.641H162.497V170.656H172.231ZM185.564 161.859V162.969C185.564 164.172 185.564 165.547 185.189 167.375L183.97 167.281C184.142 166.5 184.236 165.812 184.298 165.188L175.829 165.594L175.658 164.547L184.345 164.281C184.361 163.828 184.361 163.391 184.361 162.969V162.859H176.001V161.859H185.564ZM187.142 168.188V169.188H174.501V168.188H179.658V166.266H180.892V168.188H187.142ZM185.579 170.656V175.203H184.345V171.641H175.845V170.656H185.579ZM204.073 168.734V169.734H198.416V172.453H197.198V169.734H191.354V168.734H204.073ZM202.651 173.938V174.969H192.979V171.172H194.198V173.938H202.651ZM194.276 161.828V163.609H201.151V161.828H202.369V167.375H193.057V161.828H194.276ZM194.276 166.375H201.151V164.547H194.276V166.375ZM215.577 161.375V164.781H217.671V165.812H215.577V169.266H214.358V161.375H215.577ZM211.53 162.328V163.328H206.592V167.422C209.382 167.438 210.967 167.336 212.827 166.969L212.983 167.969C211.03 168.359 209.374 168.438 206.452 168.438H205.374V162.328H211.53ZM215.577 169.984V175.078H206.811V169.984H215.577ZM208.014 170.984V174.078H214.358V170.984H208.014ZM225.003 163.781V164.781H218.034V163.781H220.925V161.797H222.144V163.781H225.003ZM221.519 165.719C223.269 165.719 224.519 167.031 224.534 168.875C224.519 170.734 223.269 172.062 221.519 172.062C219.784 172.062 218.534 170.734 218.534 168.875C218.534 167.031 219.784 165.719 221.519 165.719ZM221.519 166.75C220.425 166.766 219.628 167.656 219.628 168.875C219.628 170.109 220.425 171 221.519 170.984C222.628 171 223.441 170.109 223.441 168.875C223.441 167.656 222.628 166.766 221.519 166.75ZM229.894 161.375V175.266H228.722V168.25H226.878V174.578H225.722V161.719H226.878V167.234H228.722V161.375H229.894ZM242.633 168.062V169.078H233.039V162.672H242.492V163.688H234.258V168.062H242.633ZM244.133 172.344V173.375H231.414V172.344H244.133ZM251.84 162.062V165.453H246.684V167.172C249.317 167.172 251.098 167.102 253.277 166.766L253.387 167.719C251.152 168.078 249.324 168.156 246.59 168.156H245.465V164.547H250.637V163.016H245.418V162.062H251.84ZM256.231 169.312V172.578H248.449V174.125H256.731V175.109H247.231V171.656H254.981V170.281H247.199V169.312H256.231ZM256.231 161.375V168.703H255.012V161.375H256.231ZM270.001 161.375V175.266H268.829V161.375H270.001ZM267.079 161.75V174.562H265.907V168.078H262.969C262.118 169.695 260.782 171.125 258.844 172.266L258.126 171.375C261.149 169.586 262.665 167.078 262.891 164.172H258.719V163.156H264.11C264.102 164.523 263.883 165.844 263.422 167.078H265.907V161.75H267.079ZM284.177 172.453V173.484H271.458V172.453H274.614V168.703C273.427 168.086 272.708 167.086 272.708 165.828C272.708 163.672 274.818 162.266 277.786 162.25C280.755 162.266 282.864 163.672 282.864 165.828C282.864 167.062 282.169 168.055 281.021 168.672V172.453H284.177ZM277.786 163.266C275.505 163.25 273.896 164.281 273.896 165.828C273.896 167.375 275.505 168.422 277.786 168.422C280.052 168.422 281.677 167.375 281.677 165.828C281.677 164.281 280.052 163.25 277.786 163.266ZM275.818 172.453H279.786V169.141C279.185 169.305 278.513 169.391 277.786 169.391C277.075 169.391 276.411 169.312 275.818 169.156V172.453ZM287.056 162.688L286.947 170.812H285.634L285.525 162.688H287.056ZM286.291 174.094C285.744 174.094 285.275 173.641 285.291 173.078C285.275 172.531 285.744 172.078 286.291 172.078C286.837 172.078 287.291 172.531 287.291 173.078C287.291 173.641 286.837 174.094 286.291 174.094Z" fill="#9EA2B0"/>
<path d="M114.178 491.04C114.178 489.383 115.522 488.04 117.178 488.04H140.366C142.023 488.04 143.366 489.383 143.366 491.04V590.595C143.366 592.251 142.023 593.595 140.366 593.595H117.178C115.522 593.595 114.178 592.251 114.178 590.595V491.04Z" fill="#8F34FF"/>
<path d="M261.979 576.57C263.635 576.57 264.979 577.913 264.979 579.57L264.979 594C264.979 595.657 263.635 597 261.979 597L117.175 597C115.518 597 114.175 595.657 114.175 594L114.175 579.57C114.175 577.913 115.518 576.57 117.175 576.57L261.979 576.57Z" fill="#8F34FF"/>
<path d="M261.979 552.735C263.635 552.735 264.979 554.078 264.979 555.735L264.979 570.165C264.979 571.821 263.635 573.165 261.979 573.165L151.228 573.165C149.571 573.165 148.228 571.821 148.228 570.165L148.228 555.735C148.228 554.078 149.571 552.735 151.228 552.735L261.979 552.735Z" fill="#8F34FF"/>
<path d="M264.979 590.595C264.979 592.252 263.635 593.595 261.979 593.595L238.791 593.595C237.134 593.595 235.791 592.252 235.791 590.595L235.791 559.14C235.791 557.483 237.134 556.14 238.791 556.14L261.979 556.14C263.635 556.14 264.979 557.483 264.979 559.14L264.979 590.595Z" fill="#8F34FF"/>
<path d="M276.583 488.04C278.24 488.04 279.583 489.383 279.583 491.04L279.583 505.47C279.583 507.127 278.24 508.47 276.583 508.47L117.186 508.47C115.529 508.47 114.186 507.127 114.186 505.47L114.186 491.04C114.186 489.383 115.529 488.04 117.186 488.04L276.583 488.04Z" fill="#8F34FF"/>
<path d="M148.228 491.04C148.228 489.383 149.571 488.04 151.228 488.04H174.415C176.072 488.04 177.415 489.383 177.415 491.04V546.33C177.415 547.987 176.072 549.33 174.415 549.33H151.228C149.571 549.33 148.228 547.987 148.228 546.33V491.04Z" fill="#8F34FF"/>
<path d="M182.286 491.04C182.286 489.383 183.629 488.04 185.286 488.04H208.474C210.131 488.04 211.474 489.383 211.474 491.04V546.33C211.474 547.987 210.131 549.33 208.474 549.33H185.286C183.629 549.33 182.286 547.987 182.286 546.33V491.04Z" fill="#8F34FF"/>
<path d="M216.344 491.04C216.344 489.383 217.688 488.04 219.344 488.04H242.532C244.189 488.04 245.532 489.383 245.532 491.04V546.33C245.532 547.987 244.189 549.33 242.532 549.33H219.344C217.688 549.33 216.344 547.987 216.344 546.33V491.04Z" fill="#8F34FF"/>
<path d="M250.393 491.04C250.393 489.383 251.736 488.04 253.393 488.04H276.58C278.237 488.04 279.58 489.383 279.58 491.04V546.33C279.58 547.987 278.237 549.33 276.58 549.33H253.393C251.736 549.33 250.393 547.987 250.393 546.33V491.04Z" fill="#8F34FF"/>
<path d="M139.195 416.054C139.219 414.959 140.12 414.088 141.215 414.1L164.002 414.338C165.789 414.357 166.656 416.533 165.371 417.776L142.068 440.319C140.783 441.562 138.637 440.624 138.678 438.836L139.195 416.054Z" fill="#8F34FF"/>
<path d="M151.004 482.64C150.259 483.353 149.268 483.751 148.238 483.751H123.341C119.823 483.751 118.018 479.537 120.446 476.991L193.821 400.036C195.397 398.383 198.035 398.383 199.611 400.036L272.986 476.991C275.414 479.537 273.609 483.751 270.091 483.751H245.195C244.164 483.751 243.173 483.353 242.428 482.64L199.482 441.528C197.935 440.047 195.497 440.047 193.95 441.528L151.004 482.64Z" fill="#8F34FF"/>
<path fill-rule="evenodd" clip-rule="evenodd" d="M193.366 463.634C193.366 463.082 192.918 462.634 192.366 462.634H189.607C189.054 462.634 188.607 463.082 188.607 463.634V466.393C188.607 466.946 189.054 467.393 189.607 467.393H192.366C192.918 467.393 193.366 466.946 193.366 466.393V463.634ZM186.275 459.303C185.723 459.303 185.275 459.751 185.275 460.303V469.725C185.275 470.277 185.723 470.725 186.275 470.725H195.697C196.249 470.725 196.697 470.277 196.697 469.725V460.303C196.697 459.751 196.249 459.303 195.697 459.303H186.275Z" fill="#8F34FF"/>
<path fill-rule="evenodd" clip-rule="evenodd" d="M193.366 472.201C193.366 471.648 192.918 471.201 192.366 471.201H189.607C189.054 471.201 188.607 471.648 188.607 472.201V474.96C188.607 475.512 189.054 475.96 189.607 475.96H192.366C192.918 475.96 193.366 475.512 193.366 474.96V472.201ZM186.275 467.869C185.723 467.869 185.275 468.317 185.275 468.869V478.291C185.275 478.843 185.723 479.291 186.275 479.291H195.697C196.249 479.291 196.697 478.843 196.697 478.291V468.869C196.697 468.317 196.249 467.869 195.697 467.869H186.275Z" fill="#8F34FF"/>
<path fill-rule="evenodd" clip-rule="evenodd" d="M201.929 463.634C201.929 463.082 201.481 462.634 200.929 462.634H198.17C197.617 462.634 197.17 463.082 197.17 463.634V466.393C197.17 466.946 197.617 467.393 198.17 467.393H200.929C201.481 467.393 201.929 466.946 201.929 466.393V463.634ZM194.838 459.303C194.286 459.303 193.838 459.751 193.838 460.303V469.725C193.838 470.277 194.286 470.725 194.838 470.725H204.26C204.812 470.725 205.26 470.277 205.26 469.725V460.303C205.26 459.751 204.812 459.303 204.26 459.303H194.838Z" fill="#8F34FF"/>
<path fill-rule="evenodd" clip-rule="evenodd" d="M201.929 472.201C201.929 471.648 201.481 471.201 200.929 471.201H198.17C197.617 471.201 197.17 471.648 197.17 472.201V474.96C197.17 475.512 197.617 475.96 198.17 475.96H200.929C201.481 475.96 201.929 475.512 201.929 474.96V472.201ZM194.838 467.869C194.286 467.869 193.838 468.317 193.838 468.869V478.291C193.838 478.843 194.286 479.291 194.838 479.291H204.26C204.812 479.291 205.26 478.843 205.26 478.291V468.869C205.26 468.317 204.812 467.869 204.26 467.869H194.838Z" fill="#8F34FF"/>
<path d="M275.5 404.364C269.35 404.364 264.364 409.35 264.364 415.5C264.364 421.651 269.35 426.636 275.5 426.636C281.651 426.636 286.637 421.651 286.637 415.5C286.637 409.35 281.651 404.364 275.5 404.364Z" fill="#E3CCFF"/>
<path fill-rule="evenodd" clip-rule="evenodd" d="M275.5 391C276.73 391 277.727 391.997 277.727 393.227V395.455C277.727 396.685 276.73 397.682 275.5 397.682C274.27 397.682 273.273 396.685 273.273 395.455V393.227C273.273 391.997 274.27 391 275.5 391ZM256.107 396.107C256.977 395.237 258.387 395.237 259.257 396.107L262.598 399.448C263.467 400.318 263.467 401.728 262.598 402.598C261.728 403.467 260.318 403.467 259.448 402.598L256.107 399.257C255.237 398.387 255.237 396.977 256.107 396.107ZM294.893 396.107C295.763 396.977 295.763 398.387 294.893 399.257L291.552 402.598C290.682 403.467 289.272 403.467 288.402 402.598C287.533 401.728 287.533 400.318 288.402 399.448L291.743 396.107C292.613 395.237 294.023 395.237 294.893 396.107ZM251 415.5C251 414.27 251.997 413.273 253.227 413.273H255.455C256.685 413.273 257.682 414.27 257.682 415.5C257.682 416.73 256.685 417.727 255.455 417.727H253.227C251.997 417.727 251 416.73 251 415.5ZM293.318 415.5C293.318 414.27 294.315 413.273 295.545 413.273H297.773C299.003 413.273 300 414.27 300 415.5C300 416.73 299.003 417.727 297.773 417.727H295.545C294.315 417.727 293.318 416.73 293.318 415.5ZM262.598 428.402C263.467 429.272 263.467 430.682 262.598 431.552L259.257 434.893C258.387 435.763 256.977 435.763 256.107 434.893C255.237 434.023 255.237 432.613 256.107 431.743L259.448 428.402C260.318 427.533 261.728 427.533 262.598 428.402ZM288.402 428.402C289.272 427.533 290.682 427.533 291.552 428.402L294.893 431.743C295.763 432.613 295.763 434.023 294.893 434.893C294.023 435.763 292.613 435.763 291.743 434.893L288.402 431.552C287.533 430.682 287.533 429.272 288.402 428.402ZM275.5 433.318C276.73 433.318 277.727 434.315 277.727 435.545V437.773C277.727 439.003 276.73 440 275.5 440C274.27 440 273.273 439.003 273.273 437.773V435.545C273.273 434.315 274.27 433.318 275.5 433.318Z" fill="#E3CCFF"/>
<path d="M305 583H313V580H305V583Z" fill="#8F34FF"/>
<path d="M311 594H319V591H311V594Z" fill="#8F34FF"/>
<path d="M308 589H316V586H308V589Z" fill="#8F34FF"/>
<path d="M300.782 582.714C300.772 581.509 300.447 580.327 299.838 579.282C299.23 578.238 298.358 577.366 297.309 576.753L308 558.429L305.5 557L294.557 575.751C293.214 575.455 291.817 575.496 290.494 575.871C289.171 576.246 287.964 576.943 286.984 577.898C281.576 583.057 281.995 595.117 282.015 595.629C282.03 595.997 282.189 596.346 282.458 596.602C282.727 596.858 283.086 597 283.459 597H305.113C305.416 597 305.712 596.906 305.957 596.73C306.203 596.555 306.387 596.308 306.483 596.023C306.579 595.739 306.582 595.432 306.492 595.145C306.401 594.859 306.222 594.608 305.98 594.429C300.867 590.634 300.782 582.791 300.782 582.714ZM293.455 578.424C294.611 578.437 295.717 578.89 296.544 579.689C297.372 580.488 297.855 581.572 297.895 582.714C297.895 582.769 297.898 583.011 297.919 583.384L289.398 579.636C289.959 579.178 290.607 578.835 291.303 578.627C292 578.419 292.731 578.35 293.455 578.424ZM298.538 594.143C297.384 592.98 296.648 591.474 296.445 589.857H293.556C293.659 591.378 294.14 592.849 294.955 594.143H291.743C291.149 592.289 290.788 590.37 290.667 588.429H287.778C287.871 590.364 288.194 592.282 288.739 594.143H284.889C284.934 591.519 285.308 585.726 287.493 581.925L298.374 586.71C298.897 589.395 300.012 591.933 301.64 594.143H298.538Z" fill="#8F34FF"/>
<path d="M87.7244 438.146C89.2838 445.661 96.6398 450.489 104.155 448.93C106.602 448.422 108.764 447.3 110.513 445.758C111.486 454.558 105.618 462.819 96.7729 464.654C87.3793 466.603 78.1842 460.568 76.2351 451.175C74.3997 442.329 79.6436 433.66 88.105 431.051C87.3861 433.269 87.2167 435.699 87.7244 438.146ZM79.6368 450.469C81.1961 457.984 88.5522 462.812 96.0671 461.252C101.111 460.206 104.978 456.527 106.472 451.916C105.945 452.079 105.407 452.218 104.861 452.331C95.467 454.281 86.2718 448.246 84.3227 438.852C84.2093 438.305 84.1225 437.757 84.0621 437.208C80.4264 440.413 78.5902 445.425 79.6368 450.469ZM100.302 428.956L101.797 429.017L102.15 430.718L100.802 431.368C99.6464 431.926 98.8922 433.075 98.8405 434.357L98.78 435.852L97.0792 436.205L96.4287 434.857C95.8712 433.702 94.7221 432.947 93.44 432.896L91.9447 432.835L91.5918 431.134L92.9396 430.484C94.0952 429.926 94.8494 428.777 94.9011 427.495L94.9616 426L96.6625 425.647L97.3129 426.995C97.8705 428.15 99.0195 428.905 100.302 428.956ZM110.571 435.696L112.066 435.757L112.419 437.457L111.071 438.108C109.915 438.665 109.161 439.814 109.109 441.097L109.049 442.592L107.348 442.945L106.698 441.597C106.14 440.441 104.991 439.687 103.709 439.635L102.214 439.575L101.861 437.874L103.209 437.224C104.364 436.666 105.118 435.517 105.17 434.235L105.231 432.74L106.931 432.387L107.582 433.735C108.139 434.89 109.288 435.644 110.571 435.696Z" fill="#E3CCFF"/>
<rect x="159" y="342" width="72" height="27" rx="13.5" fill="#E3CCFF"/>
<path d="M189.079 348.641V349.891C189.064 351.172 189.064 352.578 188.673 354.391L186.954 354.266C187.103 353.594 187.189 352.992 187.251 352.422L179.064 352.781L178.845 351.359L187.329 351.156C187.345 350.773 187.345 350.406 187.345 350.047H179.22V348.641H189.079ZM190.564 355.047V356.438H177.751V355.047H182.689V353.344H184.423V355.047H190.564ZM189.017 357.641V362.328H187.282V359.016H179.079V357.641H189.017ZM193.974 349.688L193.802 357.672H192.037L191.849 349.688H193.974ZM192.927 361.125C192.256 361.125 191.709 360.578 191.709 359.906C191.709 359.25 192.256 358.703 192.927 358.703C193.568 358.703 194.131 359.25 194.131 359.906C194.131 360.578 193.568 361.125 192.927 361.125ZM206.588 348.641V349.891C206.573 351.172 206.573 352.578 206.182 354.391L204.463 354.266C204.612 353.594 204.698 352.992 204.76 352.422L196.573 352.781L196.354 351.359L204.838 351.156C204.854 350.773 204.854 350.406 204.854 350.047H196.729V348.641H206.588ZM208.073 355.047V356.438H195.26V355.047H200.198V353.344H201.932V355.047H208.073ZM206.526 357.641V362.328H204.791V359.016H196.588V357.641H206.526ZM211.483 349.688L211.311 357.672H209.546L209.358 349.688H211.483ZM210.436 361.125C209.764 361.125 209.217 360.578 209.217 359.906C209.217 359.25 209.764 358.703 210.436 358.703C211.077 358.703 211.639 359.25 211.639 359.906C211.639 360.578 211.077 361.125 210.436 361.125Z" fill="#8F34FF"/>
<path d="M196.5 378L190.005 366.75L202.995 366.75L196.5 378Z" fill="#E3CCFF"/>
</svg>
