<svg width="411" height="496" viewBox="0 0 411 496" fill="none" xmlns="http://www.w3.org/2000/svg">
<path d="M0.441772 228.63C0.441772 226.974 1.78492 225.63 3.44177 225.63H69.7794C71.4363 225.63 72.7794 226.974 72.7794 228.63V484.232C72.7794 485.889 71.4363 487.232 69.7794 487.232H3.44177C1.78492 487.232 0.441772 485.889 0.441772 484.232V228.63Z" fill="#8F34FF"/>
<path d="M371.177 445.038C372.833 445.038 374.177 446.381 374.177 448.038L374.177 492.671C374.177 494.328 372.833 495.671 371.177 495.671L3.43219 495.671C1.77533 495.671 0.432187 494.328 0.432187 492.671L0.43219 448.038C0.43219 446.381 1.77533 445.038 3.43219 445.038L371.177 445.038Z" fill="#8F34FF"/>
<path d="M371.177 385.967C372.833 385.967 374.177 387.31 374.177 388.967L374.177 433.599C374.177 435.256 372.833 436.599 371.177 436.599L87.826 436.599C86.1692 436.599 84.826 435.256 84.826 433.599L84.826 388.967C84.826 387.31 86.1692 385.967 87.826 385.967L371.177 385.967Z" fill="#8F34FF"/>
<path d="M374.177 484.232C374.177 485.889 372.833 487.232 371.177 487.232L304.839 487.232C303.182 487.232 301.839 485.889 301.839 484.232L301.839 397.406C301.839 395.749 303.182 394.406 304.839 394.406L371.177 394.406C372.834 394.406 374.177 395.749 374.177 397.406L374.177 484.232Z" fill="#8F34FF"/>
<path d="M407.374 225.63C409.031 225.63 410.374 226.974 410.374 228.63L410.374 273.263C410.374 274.92 409.031 276.263 407.374 276.263L3.46063 276.263C1.80377 276.263 0.460629 274.92 0.460629 273.263L0.460632 228.63C0.460632 226.974 1.80377 225.63 3.46063 225.63L407.374 225.63Z" fill="#8F34FF"/>
<path d="M84.8263 228.63C84.8263 226.974 86.1694 225.63 87.8263 225.63H154.164C155.821 225.63 157.164 226.974 157.164 228.63V374.528C157.164 376.185 155.821 377.528 154.164 377.528H87.8263C86.1694 377.528 84.8263 376.185 84.8263 374.528V228.63Z" fill="#8F34FF"/>
<path d="M169.236 228.63C169.236 226.974 170.579 225.63 172.236 225.63H238.574C240.231 225.63 241.574 226.974 241.574 228.63V374.528C241.574 376.185 240.231 377.528 238.574 377.528H172.236C170.579 377.528 169.236 376.185 169.236 374.528V228.63Z" fill="#8F34FF"/>
<path d="M253.645 228.63C253.645 226.974 254.988 225.63 256.645 225.63H322.983C324.64 225.63 325.983 226.974 325.983 228.63V374.528C325.983 376.185 324.64 377.528 322.983 377.528H256.645C254.988 377.528 253.645 376.185 253.645 374.528V228.63Z" fill="#8F34FF"/>
<path d="M338.03 228.63C338.03 226.974 339.373 225.63 341.03 225.63H407.367C409.024 225.63 410.367 226.974 410.367 228.63V374.528C410.367 376.185 409.024 377.528 407.367 377.528H341.03C339.373 377.528 338.03 376.185 338.03 374.528V228.63Z" fill="#8F34FF"/>
<path d="M62.5075 44.303C62.5323 43.2082 63.4329 42.3369 64.5279 42.3484L131.122 43.0461C132.91 43.0649 133.777 45.2405 132.492 46.4835L64.388 112.366C63.1032 113.609 60.9574 112.671 60.998 110.884L62.5075 44.303Z" fill="#8F34FF"/>
<path d="M89.9934 213.889C89.2489 214.602 88.258 215 87.2274 215H9.34082C5.82293 215 4.01825 210.786 6.44586 208.24L202.105 3.03617C203.681 1.38324 206.319 1.38324 207.895 3.03617L403.554 208.24C405.982 210.786 404.177 215 400.659 215H322.773C321.742 215 320.751 214.602 320.007 213.889L207.766 106.441C206.219 104.96 203.781 104.96 202.234 106.441L89.9934 213.889Z" fill="#8F34FF"/>
<path fill-rule="evenodd" clip-rule="evenodd" d="M196.698 163.665C196.698 163.113 196.251 162.665 195.698 162.665H185.904C185.351 162.665 184.904 163.113 184.904 163.665V173.46C184.904 174.013 185.351 174.46 185.904 174.46H195.698C196.251 174.46 196.698 174.013 196.698 173.46V163.665ZM177.647 154.409C177.095 154.409 176.647 154.857 176.647 155.409V181.717C176.647 182.269 177.095 182.717 177.647 182.717H203.955C204.507 182.717 204.955 182.269 204.955 181.717V155.409C204.955 154.857 204.507 154.409 203.955 154.409H177.647Z" fill="#8F34FF"/>
<path fill-rule="evenodd" clip-rule="evenodd" d="M196.698 184.896C196.698 184.344 196.251 183.896 195.698 183.896H185.904C185.351 183.896 184.904 184.344 184.904 184.896V194.691C184.904 195.243 185.351 195.691 185.904 195.691H195.698C196.251 195.691 196.698 195.243 196.698 194.691V184.896ZM177.647 175.64C177.095 175.64 176.647 176.087 176.647 176.64V202.947C176.647 203.499 177.095 203.947 177.647 203.947H203.955C204.507 203.947 204.955 203.499 204.955 202.947V176.64C204.955 176.087 204.507 175.64 203.955 175.64H177.647Z" fill="#8F34FF"/>
<path fill-rule="evenodd" clip-rule="evenodd" d="M217.921 163.665C217.921 163.113 217.473 162.665 216.921 162.665H207.126C206.574 162.665 206.126 163.113 206.126 163.665V173.46C206.126 174.013 206.574 174.46 207.126 174.46H216.921C217.473 174.46 217.921 174.013 217.921 173.46V163.665ZM198.87 154.409C198.318 154.409 197.87 154.857 197.87 155.409V181.717C197.87 182.269 198.318 182.717 198.87 182.717H225.177C225.73 182.717 226.177 182.269 226.177 181.717V155.409C226.177 154.857 225.73 154.409 225.177 154.409H198.87Z" fill="#8F34FF"/>
<path fill-rule="evenodd" clip-rule="evenodd" d="M217.921 184.896C217.921 184.344 217.473 183.896 216.921 183.896H207.126C206.574 183.896 206.126 184.344 206.126 184.896V194.691C206.126 195.243 206.574 195.691 207.126 195.691H216.921C217.473 195.691 217.921 195.243 217.921 194.691V184.896ZM198.87 175.64C198.318 175.64 197.87 176.087 197.87 176.64V202.947C197.87 203.499 198.318 203.947 198.87 203.947H225.177C225.73 203.947 226.177 203.499 226.177 202.947V176.64C226.177 176.087 225.73 175.64 225.177 175.64H198.87Z" fill="#8F34FF"/>
</svg>
