<svg width="31" height="96" viewBox="0 0 31 96" fill="none" xmlns="http://www.w3.org/2000/svg">
<path d="M15.3959 18.1565C19.8573 18.1565 23.4741 14.5397 23.4741 10.0782C23.4741 5.61675 19.8573 2 15.3959 2C10.9344 2 7.31763 5.61675 7.31763 10.0782C7.31763 14.5397 10.9344 18.1565 15.3959 18.1565Z" stroke="#9EA2B0" stroke-width="4" stroke-linecap="round"/>
<path d="M6.48335 68.7858V51.5631C6.4857 51.1401 6.39794 50.7213 6.22589 50.3348C6.05384 49.9483 5.80146 49.6028 5.48553 49.3215L2.49208 46.5877C2.33671 46.4453 2.21271 46.2721 2.12799 46.0791C2.04327 45.8861 1.99968 45.6776 2 45.4669V27.6975C1.99999 26.8987 2.31638 26.1324 2.87993 25.5663C3.44349 25.0002 4.20833 24.6803 5.00713 24.6767H24.2801C25.4776 24.6803 26.6249 25.1586 27.4704 26.0067C28.316 26.8548 28.7908 28.0035 28.7908 29.2011V45.6036C28.7871 45.9886 28.641 46.3587 28.3807 46.6424L25.4966 49.7178C24.9674 50.2744 24.6736 51.0139 24.6765 51.7818V68.7858" stroke="#9EA2B0" stroke-width="4" stroke-linecap="round"/>
<path d="M25.4393 83.483V92.6158H23.9218V89.3893H22.1718V88.1315H23.9218V86.9557H22.1718V85.7252H23.9218V83.483H25.4393ZM21.994 84.4127V85.6295H20.9003V89.567C21.3651 89.5397 21.8163 89.5055 22.2538 89.4576L22.3221 90.5651C19.9843 90.9479 17.2362 90.9889 15.2675 90.9889L15.1034 89.7311C15.5341 89.7311 16.0057 89.7311 16.4979 89.7174V85.6295H15.4178V84.4127H21.994ZM25.7538 94.3658V95.5963H17.3182V91.9049H18.8495V94.3658H25.7538ZM17.9745 89.7037C18.453 89.6901 18.9452 89.6764 19.4374 89.649V85.6295H17.9745V89.7037Z" fill="#9EA2B0"/>
<path d="M13.1582 83.4967V86.1764H14.8945V87.4342H13.1582V90.4557H11.6406V83.4967H13.1582ZM13.1582 91.0573V95.6783H5.16016V91.0573H13.1582ZM6.65039 92.2467V94.4752H11.668V92.2467H6.65039ZM5.47461 84.0983V88.4459C7.06055 88.4323 8.72852 88.2887 10.5332 87.9401L10.7109 89.1842C8.66016 89.5944 6.75977 89.7037 4.96875 89.7037H3.94336V84.0983H5.47461Z" fill="#9EA2B0"/>
</svg>
