<svg width="16" height="17" viewBox="0 0 16 17" fill="none" xmlns="http://www.w3.org/2000/svg">
<path d="M13.462 2.21814e-07C13.0316 -0.000222388 12.6127 0.167117 12.2684 0.476862C11.924 0.7866 11.6729 1.22202 11.5525 1.71766C11.4322 2.2133 11.4493 2.74239 11.6012 3.2254C11.7531 3.70841 12.0316 4.11924 12.3948 4.39616L11.0971 9.84341C11.0571 9.84047 11.0168 9.83856 10.9762 9.83856C10.5483 9.838 10.1319 10.0038 9.78935 10.3111L7.39189 7.91497C7.50538 7.51101 7.52659 7.07804 7.45328 6.66104C7.37989 6.24401 7.21476 5.85815 6.97492 5.54363C6.73515 5.2291 6.42943 4.99738 6.08963 4.87259C5.74984 4.74779 5.38837 4.73447 5.04282 4.83402C4.69728 4.93358 4.38029 5.14235 4.12483 5.43863C3.86937 5.73492 3.68478 6.10788 3.59026 6.51873C3.49573 6.92961 3.49472 7.3633 3.58734 7.77481C3.67996 8.18624 3.86282 8.56046 4.1169 8.85844L2.70951 12.2344C2.64839 12.2276 2.58664 12.2237 2.52409 12.2237C2.04766 12.2229 1.5868 12.4271 1.22517 12.7991C0.863529 13.1711 0.625091 13.6863 0.553126 14.2511C0.48116 14.816 0.580441 15.393 0.832949 15.8776C1.08545 16.3621 1.47444 16.722 1.92931 16.892C2.38419 17.0619 2.87479 17.0306 3.31207 16.8037C3.74934 16.5769 4.10431 16.1695 4.31254 15.6556C4.52078 15.1417 4.56847 14.5553 4.44695 14.0027C4.32544 13.4502 4.04279 12.9683 3.6503 12.6444L4.98025 9.45472C5.30332 9.56165 5.64369 9.56865 5.96962 9.47507C6.29555 9.38149 6.59641 9.19045 6.84413 8.91974L9.16529 11.2397C9.00766 11.6563 8.9533 12.1185 9.00858 12.5711C9.06387 13.0238 9.22661 13.4478 9.47726 13.7926C9.7279 14.1375 10.056 14.3885 10.4224 14.516C10.7887 14.6434 11.1779 14.6418 11.5435 14.5113C11.9091 14.3808 12.2357 14.1271 12.4843 13.7801C12.7331 13.4332 12.8933 13.0079 12.9459 12.5548C12.9986 12.1016 12.9415 11.64 12.7815 11.2247C12.6215 10.8094 12.3653 10.4581 12.0434 10.2126L13.341 4.76537C13.3811 4.76827 13.4213 4.77021 13.462 4.77021C13.9895 4.77021 14.4953 4.51892 14.8683 4.07163C15.2412 3.62434 15.4508 3.01768 15.4508 2.38511C15.4508 1.75254 15.2412 1.14588 14.8683 0.698582C14.4953 0.251287 13.9895 2.21814e-07 13.462 2.21814e-07ZM2.52409 15.8013C2.32743 15.8013 2.13518 15.7314 1.97165 15.6003C1.80814 15.4693 1.68069 15.283 1.60543 15.0651C1.53017 14.8472 1.51047 14.6074 1.54884 14.3761C1.58721 14.1448 1.68191 13.9323 1.82098 13.7655C1.96004 13.5988 2.13721 13.4851 2.3301 13.4391C2.52299 13.3931 2.72292 13.4167 2.90462 13.507C3.08631 13.5972 3.24161 13.7501 3.35087 13.9462C3.46013 14.1423 3.51845 14.3729 3.51845 14.6088C3.51815 14.925 3.41329 15.2281 3.22688 15.4517C3.04047 15.6752 2.78772 15.801 2.52409 15.8013ZM5.50717 8.34787C5.3105 8.34787 5.11825 8.27791 4.95473 8.14688C4.79121 8.01586 4.66376 7.82959 4.5885 7.61167C4.51324 7.39375 4.49354 7.15397 4.53191 6.92269C4.57028 6.69133 4.66498 6.47884 4.80405 6.31205C4.94311 6.14527 5.12029 6.03169 5.31317 5.98568C5.50606 5.93966 5.70599 5.96328 5.88769 6.05354C6.06938 6.1438 6.22468 6.29665 6.33394 6.49277C6.44321 6.68889 6.50152 6.91943 6.50152 7.15532C6.50122 7.4715 6.39637 7.77465 6.20996 7.99821C6.02354 8.22178 5.7708 8.34755 5.50717 8.34787ZM10.9762 13.4162C10.7795 13.4162 10.5872 13.3463 10.4237 13.2152C10.2601 13.0842 10.1327 12.8979 10.0574 12.68C9.98219 12.4621 9.9625 12.2223 10.0009 11.991C10.0393 11.7597 10.1339 11.5472 10.273 11.3804C10.4121 11.2137 10.5893 11.1 10.7821 11.054C10.975 11.008 11.175 11.0316 11.3567 11.1219C11.5384 11.2121 11.6937 11.365 11.8029 11.5611C11.9122 11.7572 11.9705 11.9878 11.9705 12.2237C11.9702 12.5399 11.8653 12.843 11.6789 13.0666C11.4925 13.2901 11.2398 13.4159 10.9762 13.4162ZM13.462 3.57766C13.2654 3.57766 13.0731 3.50772 12.9096 3.37667C12.746 3.24564 12.6186 3.05938 12.5433 2.84148C12.4681 2.62357 12.4484 2.38379 12.4868 2.15245C12.5252 1.92112 12.6198 1.70863 12.7589 1.54184C12.898 1.37506 13.0752 1.26148 13.268 1.21547C13.4609 1.16945 13.6609 1.19307 13.8426 1.28333C14.0243 1.37359 14.1796 1.52644 14.2888 1.72256C14.3981 1.91867 14.4564 2.14924 14.4564 2.38511C14.4561 2.70128 14.3512 3.00441 14.1648 3.22798C13.9784 3.45154 13.7257 3.5773 13.462 3.57766Z" fill="white"/>
</svg>
