<svg width="334" height="57" viewBox="0 0 334 57" fill="none" xmlns="http://www.w3.org/2000/svg">
<rect width="334" height="57" rx="15" fill="#8F34FF"/>
<path d="M164.641 21.2188V26.5H166.734V28.125H164.641V35.4688H162.641V21.2188H164.641ZM160.656 22.5312V24.1406H155.969V30.375C158.031 30.3516 159.734 30.2578 161.625 29.9219L161.844 31.5938C159.641 31.9688 157.703 32.0312 155.188 32.0156H153.984V22.5312H160.656ZM173.254 21.4844C176.411 21.4844 178.411 22.5312 178.426 24.2656C178.411 25.9844 176.411 27.0312 173.254 27.0156C170.114 27.0312 168.067 25.9844 168.067 24.2656C168.067 22.5312 170.114 21.4844 173.254 21.4844ZM173.254 23.0312C171.27 23.0312 170.129 23.4531 170.145 24.2656C170.129 25.0625 171.27 25.4688 173.254 25.4688C175.223 25.4688 176.364 25.0625 176.364 24.2656C176.364 23.4531 175.223 23.0312 173.254 23.0312ZM178.192 30.4375V35.2812H168.27V30.4375H178.192ZM170.239 32.0156V33.6875H176.239V32.0156H170.239ZM179.739 27.8438V29.4375H166.77V27.8438H179.739Z" fill="white"/>
</svg>
