<svg width="60" height="81" viewBox="0 0 60 81" fill="none" xmlns="http://www.w3.org/2000/svg">
<path d="M11.5645 69.4766C11.5645 70.5605 12.4141 71.5762 13.7617 71.9668L13.293 72.6895C12.2725 72.3818 11.501 71.7129 11.1055 70.8535C10.71 71.7715 9.92871 72.499 8.87891 72.8457L8.41016 72.1133C9.76758 71.6934 10.6172 70.6289 10.627 69.4766V69.3789H8.66406V68.627H13.4883V69.3789H11.5645V69.4766ZM15.5781 68.0801V72.8164H14.6504V68.0801H15.5781ZM10.7637 73.2266V74.2031H14.6602V73.2266H15.5781V76.7227H9.85547V73.2266H10.7637ZM10.7637 75.9707H14.6602V74.9355H10.7637V75.9707ZM23.5398 68.0703V70.6875H24.8094V71.4688H23.5398V74.5059H22.6121V68.0703H23.5398ZM23.9109 75.8926V76.6445H17.993V73.832H18.9207V75.8926H23.9109ZM19.1258 68.6758C20.4441 68.6758 21.45 69.5742 21.4598 70.8535C21.45 72.123 20.4441 73.0312 19.1258 73.0312C17.8074 73.0312 16.7918 72.123 16.8016 70.8535C16.7918 69.5742 17.8074 68.6758 19.1258 68.6758ZM19.1258 69.4863C18.325 69.4863 17.7 70.043 17.7098 70.8535C17.7 71.6641 18.325 72.2207 19.1258 72.2207C19.9363 72.2207 20.5516 71.6641 20.5516 70.8535C20.5516 70.043 19.9363 69.4863 19.1258 69.4863ZM27.4879 68.373C28.8062 68.3828 29.773 69.1934 29.7828 70.3359C29.773 71.4883 28.8062 72.2891 27.4879 72.2891C26.1598 72.2891 25.1832 71.4883 25.1832 70.3359C25.1832 69.1934 26.1598 68.3828 27.4879 68.373ZM27.4879 69.1543C26.6773 69.1445 26.0816 69.623 26.0914 70.3359C26.0816 71.0586 26.6773 71.5371 27.4879 71.5371C28.2887 71.5371 28.8844 71.0586 28.8844 70.3359C28.8844 69.623 28.2887 69.1445 27.4879 69.1543ZM32.2633 68.0801V72.5332H31.3355V68.0801H32.2633ZM32.2633 72.9336V75.1406H27.4391V75.9805H32.5562V76.7227H26.5406V74.4473H31.3453V73.6758H26.5113V72.9336H32.2633ZM40.3645 68.7441V69.2324C40.3547 69.8184 40.3547 70.6875 40.1398 71.8203L39.2219 71.7324C39.4123 70.7607 39.4416 70.0576 39.4562 69.5059H35.9504V68.7441H40.3645ZM38.1281 70.707V72.5137C39.0656 72.4844 40.0324 72.416 40.9113 72.2891L40.9699 72.9629C39.1437 73.2852 37.0539 73.3145 35.5109 73.3242L35.423 72.5723C35.9602 72.5674 36.5705 72.5625 37.2102 72.543V70.707H38.1281ZM42.4152 68.0801V70.8633H43.6164V71.6445H42.4152V74.6523H41.468V68.0801H42.4152ZM42.6984 75.8926V76.6445H36.7512V74.0566H37.6789V75.8926H42.6984ZM51.0996 68.0801V76.8496H50.1719V68.0801H51.0996ZM48.4238 68.8711V72.0645H45.2793V73.9785C46.6953 73.9736 47.9355 73.9102 49.4004 73.666L49.4883 74.4277C47.9355 74.6914 46.6172 74.75 45.0742 74.75H44.332V71.3223H47.4766V69.623H44.3223V68.8711H48.4238Z" fill="#9EA2B0"/>
<path fill-rule="evenodd" clip-rule="evenodd" d="M30 0C13.4315 0 0 13.4315 0 30C0 46.5685 13.4315 60 30 60C46.5685 60 60 46.5685 60 30C60 13.4315 46.5685 0 30 0ZM32.7273 40.9091C32.7273 42.4154 31.5063 43.6364 30 43.6364C28.4937 43.6364 27.2727 42.4154 27.2727 40.9091V32.7273H19.0909C17.5847 32.7273 16.3636 31.5063 16.3636 30C16.3636 28.4937 17.5847 27.2727 19.0909 27.2727H27.2727V19.0909C27.2727 17.5847 28.4937 16.3636 30 16.3636C31.5063 16.3636 32.7273 17.5847 32.7273 19.0909V27.2727H40.9091C42.4154 27.2727 43.6364 28.4937 43.6364 30C43.6364 31.5063 42.4154 32.7273 40.9091 32.7273H32.7273V40.9091Z" fill="#8F34FF"/>
<rect x="27" y="16" width="6" height="28" rx="3" fill="white"/>
<rect x="44" y="27" width="6" height="28" rx="3" transform="rotate(90 44 27)" fill="white"/>
</svg>
