<svg width="52" height="52" viewBox="0 0 52 52" fill="none" xmlns="http://www.w3.org/2000/svg">
<mask id="mask0_105_5684" style="mask-type:alpha" maskUnits="userSpaceOnUse" x="0" y="0" width="52" height="52">
<rect width="52" height="52" fill="#9EA2B0"/>
</mask>
<g mask="url(#mask0_105_5684)">
<path d="M44.6183 21.2616C43.3302 18.2538 41.3192 15.6063 38.7619 13.5515C36.2046 11.4968 33.179 10.0977 29.9509 9.47705L32.867 4.83792L29.9095 3L26.0618 9.12149C22.1424 9.13956 18.3141 10.299 15.0501 12.4566C11.786 14.6141 9.22926 17.6752 7.69558 21.2616C5.64123 21.3005 3.68421 22.1392 2.24519 23.5976C0.806166 25.0559 0 27.0173 0 29.0603C0 31.1035 0.806166 33.0649 2.24519 34.5232C3.68421 35.9815 5.64123 36.8202 7.69558 36.8591C9.23579 40.4602 11.8073 43.5315 15.0899 45.6903C18.3725 47.8492 22.2212 49 26.1569 49C30.0925 49 33.9411 47.8492 37.2239 45.6903C40.5064 43.5315 43.0779 40.4602 44.6183 36.8591C46.6724 36.8202 48.6294 35.9815 50.0687 34.5232C51.5076 33.0649 52.3137 31.1035 52.3137 29.0603C52.3137 27.0173 51.5076 25.0559 50.0687 23.5976C48.6294 22.1392 46.6724 21.3005 44.6183 21.2616ZM47.5774 32.0957C46.7799 32.907 45.6927 33.3726 44.552 33.392L42.2932 33.4345L41.409 35.5015C40.1367 38.4771 38.0123 41.0146 35.3004 42.7984C32.5884 44.582 29.4085 45.5331 26.1569 45.5331C22.9053 45.5331 19.7255 44.582 17.0135 42.7984C14.3015 41.0146 12.1771 38.4771 10.9049 35.5015L10.0206 33.4345L7.76185 33.392C6.62059 33.3707 5.5333 32.9051 4.73376 32.095C3.93422 31.285 3.48628 30.1954 3.48628 29.0603C3.48628 27.9254 3.93422 26.8358 4.73376 26.0257C5.5333 25.2157 6.62059 24.75 7.76185 24.7288L10.0206 24.686L10.9049 22.6191C12.1772 19.6437 14.3016 17.1062 17.0136 15.3225C19.7256 13.5388 22.9053 12.5877 26.1569 12.5877C29.4085 12.5877 32.5882 13.5388 35.3004 15.3225C38.0123 17.1062 40.1367 19.6437 41.409 22.6191L42.2932 24.686L44.552 24.7288C45.4032 24.7447 46.2309 25.0085 46.9331 25.4871C47.6353 25.9659 48.1809 26.6386 48.503 27.4223C48.8247 28.206 48.9087 29.0663 48.7441 29.8969C48.5797 30.7273 48.174 31.4919 47.5774 32.0957Z" fill="#8F34FF"/>
<path d="M20.7452 24.647H16.2354V29.1568H20.7452V24.647Z" fill="#8F34FF"/>
<path d="M35.1764 24.647H31.5686V29.1568H35.1764V24.647Z" fill="#8F34FF"/>
<path d="M25.7058 40.8824C26.8312 40.8824 27.9453 40.6724 28.985 40.2643C30.0244 39.8565 30.969 39.2586 31.7649 38.5049C32.5605 37.7509 33.1916 36.856 33.6221 35.8713C34.0528 34.8863 34.2745 33.8308 34.2745 32.7647H17.1372C17.1372 33.8308 17.3588 34.8863 17.7895 35.8713C18.2201 36.856 18.8512 37.7509 19.6469 38.5049C21.2538 40.0271 23.4332 40.8824 25.7058 40.8824Z" fill="#8F34FF"/>
</g>
</svg>
