<svg width="52" height="52" viewBox="0 0 52 52" fill="none" xmlns="http://www.w3.org/2000/svg">
<mask id="mask0_105_5616" style="mask-type:alpha" maskUnits="userSpaceOnUse" x="0" y="0" width="52" height="52">
<rect width="52" height="52" fill="#9EA2B0"/>
</mask>
<g mask="url(#mask0_105_5616)">
<path d="M40.8741 14.1571L34.5077 5.31887C34.0357 4.66518 33.4085 4.12897 32.6782 3.75469C31.9476 3.3804 31.1348 3.17879 30.307 3.16658L18.2249 3H18.2C11.9623 3 7.17632 4.00269 4.09393 8.89623C1.22417 13.4513 0 21.2106 0 34.8409V36.5067H3.96034L1.41093 49H4.94368L7.49308 36.5067H8.66667C11.4976 36.5309 14.2249 35.4841 16.2595 33.5922C18.0989 31.9009 19.4257 29.587 20.0966 26.9007L20.1027 26.8765L23.0758 13.1857H19.5342L16.7199 26.1462C15.8627 29.5486 13.2997 33.1751 8.66667 33.1751H3.47316C3.56732 21.3828 4.68455 14.3914 7.05954 10.621C9.05288 7.45606 11.9665 6.3326 18.188 6.33104L30.2571 6.49762C30.533 6.50164 30.8041 6.56883 31.0475 6.6936C31.2911 6.81836 31.5002 6.99713 31.6574 7.21504L38.8593 17.2117L48.5333 18.7613V20.527L46.9199 28.7955C46.4439 31.2359 45.6301 32.4653 42.2922 32.8506L28.609 35.1003L28.5187 49H31.9853L32.0577 37.9128L42.75 36.1533C45.1723 35.867 46.9595 35.117 48.2128 33.8605C49.2842 32.7862 49.9364 31.4138 50.3274 29.4096L52 20.8366V15.939L40.8741 14.1571Z" fill="#9EA2B0"/>
</g>
</svg>
