<svg width="22" height="22" viewBox="0 0 22 22" fill="none" xmlns="http://www.w3.org/2000/svg">
<mask id="mask0_57_1848" style="mask-type:luminance" maskUnits="userSpaceOnUse" x="0" y="0" width="22" height="22">
<path d="M22 0H0V22H22V0Z" fill="white"/>
</mask>
<g mask="url(#mask0_57_1848)">
<path d="M22 11C22 13.9174 20.8411 16.7152 18.7782 18.7782C16.7152 20.8411 13.9174 22 11 22C8.08262 22 5.28472 20.8411 3.22183 18.7782C1.15892 16.7152 0 13.9174 0 11C0 10.6354 0.144865 10.2856 0.402728 10.0277C0.66059 9.76983 1.01033 9.625 1.375 9.625C1.73967 9.625 2.08941 9.76983 2.34727 10.0277C2.60513 10.2856 2.75 10.6354 2.75 11C2.75 12.6317 3.23385 14.2268 4.14037 15.5834C5.0469 16.9402 6.33537 17.9976 7.84286 18.622C9.35037 19.2464 11.0092 19.4098 12.6095 19.0915C14.2098 18.7732 15.6799 17.9874 16.8337 16.8337C17.9874 15.6799 18.7732 14.2098 19.0915 12.6095C19.4098 11.0092 19.2464 9.35037 18.622 7.84286C17.9976 6.33537 16.9402 5.0469 15.5834 4.14037C14.2268 3.23385 12.6317 2.75 11 2.75C10.6354 2.75 10.2856 2.60513 10.0277 2.34727C9.76983 2.08941 9.625 1.73967 9.625 1.375C9.625 1.01033 9.76983 0.66059 10.0277 0.402728C10.2856 0.144865 10.6354 0 11 0C13.9164 0.00315432 16.7125 1.16309 18.7747 3.22531C20.8369 5.28753 21.9969 8.08359 22 11ZM6.41667 11C6.41667 11.3646 6.56154 11.7145 6.8194 11.9723C7.07725 12.2302 7.427 12.375 7.79167 12.375H9.79917C10.1474 12.6815 10.5993 12.844 11.0631 12.8292C11.5268 12.8145 11.9675 12.6236 12.2955 12.2955C12.6236 11.9675 12.8145 11.5268 12.8292 11.0631C12.844 10.5993 12.6815 10.1474 12.375 9.79917V5.95833C12.375 5.59367 12.2302 5.24392 11.9723 4.98606C11.7145 4.7282 11.3646 4.58333 11 4.58333C10.6354 4.58333 10.2856 4.7282 10.0277 4.98606C9.76983 5.24392 9.625 5.59367 9.625 5.95833V9.625H7.79167C7.427 9.625 7.07725 9.76983 6.8194 10.0277C6.56154 10.2856 6.41667 10.6354 6.41667 11ZM6.17833 4.48617C6.45028 4.48617 6.71612 4.40553 6.94225 4.25443C7.16836 4.10335 7.3446 3.8886 7.44867 3.63736C7.55274 3.38611 7.57997 3.10965 7.52692 2.84291C7.47386 2.57619 7.3429 2.33119 7.15061 2.1389C6.95831 1.9466 6.71331 1.81564 6.44659 1.76259C6.17985 1.70953 5.90339 1.73676 5.65214 1.84083C5.4009 1.9449 5.18615 2.12114 5.03507 2.34725C4.88397 2.57338 4.80333 2.83922 4.80333 3.11117C4.80333 3.47584 4.9482 3.82558 5.20606 4.08344C5.46392 4.3413 5.81366 4.48617 6.17833 4.48617ZM2.67025 8.02083C2.9422 8.02083 3.20804 7.94019 3.43416 7.7891C3.66028 7.63802 3.83652 7.42327 3.94059 7.17203C4.04465 6.92078 4.07189 6.64431 4.01883 6.37758C3.96578 6.11086 3.83482 5.86586 3.64252 5.67356C3.45022 5.48126 3.20523 5.35031 2.9385 5.29725C2.67177 5.24419 2.3953 5.27143 2.14406 5.3755C1.89282 5.47957 1.67807 5.65581 1.52698 5.88192C1.37589 6.10804 1.29525 6.37389 1.29525 6.64583C1.29525 7.0105 1.44012 7.36025 1.69798 7.61811C1.95584 7.87596 2.30558 8.02083 2.67025 8.02083Z" fill="#8F34FF"/>
</g>
</svg>
