<svg width="235" height="314" viewBox="0 0 235 314" fill="none" xmlns="http://www.w3.org/2000/svg">
<path d="M35.0029 207.844C35.0029 206.187 36.3461 204.844 38.0029 204.844H61.1907C62.8475 204.844 64.1907 206.187 64.1907 207.844V307.398C64.1907 309.055 62.8475 310.398 61.1907 310.398H38.0029C36.3461 310.398 35.0029 309.055 35.0029 307.398V207.844Z" fill="#8F34FF"/>
<path d="M182.804 293.374C184.461 293.374 185.804 294.717 185.804 296.374L185.804 310.803C185.804 312.46 184.461 313.803 182.804 313.803L38.0004 313.803C36.3435 313.803 35.0004 312.46 35.0004 310.803L35.0004 296.374C35.0004 294.717 36.3435 293.374 38.0004 293.374L182.804 293.374Z" fill="#8F34FF"/>
<path d="M182.804 269.538C184.461 269.538 185.804 270.881 185.804 272.538L185.804 286.968C185.804 288.625 184.461 289.968 182.804 289.968L72.0527 289.968C70.3959 289.968 69.0527 288.625 69.0527 286.968L69.0527 272.538C69.0527 270.881 70.3959 269.538 72.0527 269.538L182.804 269.538Z" fill="#8F34FF"/>
<path d="M185.804 307.398C185.804 309.055 184.461 310.398 182.804 310.398L159.616 310.398C157.959 310.398 156.616 309.055 156.616 307.398L156.616 275.944C156.616 274.287 157.959 272.944 159.616 272.944L182.804 272.944C184.461 272.944 185.804 274.287 185.804 275.944L185.804 307.398Z" fill="#8F34FF"/>
<path d="M197.408 204.844C199.065 204.844 200.408 206.187 200.408 207.844L200.408 222.273C200.408 223.93 199.065 225.273 197.408 225.273L38.011 225.273C36.3542 225.273 35.011 223.93 35.011 222.273L35.011 207.844C35.011 206.187 36.3542 204.844 38.011 204.844L197.408 204.844Z" fill="#8F34FF"/>
<path d="M69.0527 207.844C69.0527 206.187 70.3959 204.844 72.0527 204.844H95.2405C96.8973 204.844 98.2405 206.187 98.2405 207.844V263.133C98.2405 264.79 96.8973 266.133 95.2405 266.133H72.0527C70.3959 266.133 69.0527 264.79 69.0527 263.133V207.844Z" fill="#8F34FF"/>
<path d="M103.11 207.844C103.11 206.187 104.453 204.844 106.11 204.844H129.298C130.955 204.844 132.298 206.187 132.298 207.844V263.133C132.298 264.79 130.955 266.133 129.298 266.133H106.11C104.453 266.133 103.11 264.79 103.11 263.133V207.844Z" fill="#8F34FF"/>
<path d="M137.169 207.844C137.169 206.187 138.512 204.844 140.169 204.844H163.357C165.014 204.844 166.357 206.187 166.357 207.844V263.133C166.357 264.79 165.014 266.133 163.357 266.133H140.169C138.512 266.133 137.169 264.79 137.169 263.133V207.844Z" fill="#8F34FF"/>
<path d="M171.218 207.844C171.218 206.187 172.561 204.844 174.218 204.844H197.406C199.062 204.844 200.406 206.187 200.406 207.844V263.133C200.406 264.79 199.062 266.133 197.406 266.133H174.218C172.561 266.133 171.218 264.79 171.218 263.133V207.844Z" fill="#8F34FF"/>
<path d="M60.0192 132.858C60.044 131.763 60.9446 130.892 62.0396 130.903L84.8264 131.142C86.614 131.161 87.4809 133.336 86.196 134.579L62.8927 157.123C61.6079 158.366 59.4622 157.427 59.5027 155.64L60.0192 132.858Z" fill="#8F34FF"/>
<path d="M71.8281 199.444C71.0836 200.157 70.0927 200.555 69.062 200.555H44.1652C40.6473 200.555 38.8426 196.34 41.2702 193.794L114.646 116.84C116.222 115.187 118.859 115.187 120.435 116.84L193.811 193.794C196.238 196.34 194.434 200.555 190.916 200.555H166.019C164.988 200.555 163.997 200.157 163.253 199.444L120.307 158.331C118.76 156.851 116.321 156.851 114.774 158.331L71.8281 199.444Z" fill="#8F34FF"/>
<path fill-rule="evenodd" clip-rule="evenodd" d="M114.191 180.438C114.191 179.886 113.743 179.438 113.191 179.438H110.432C109.88 179.438 109.432 179.886 109.432 180.438V183.197C109.432 183.749 109.88 184.197 110.432 184.197H113.191C113.743 184.197 114.191 183.749 114.191 183.197V180.438ZM107.101 176.106C106.548 176.106 106.101 176.554 106.101 177.106V186.528C106.101 187.081 106.548 187.528 107.101 187.528H116.522C117.075 187.528 117.522 187.081 117.522 186.528V177.106C117.522 176.554 117.075 176.106 116.522 176.106H107.101Z" fill="#8F34FF"/>
<path fill-rule="evenodd" clip-rule="evenodd" d="M114.191 189.004C114.191 188.452 113.743 188.004 113.191 188.004H110.432C109.88 188.004 109.432 188.452 109.432 189.004V191.763C109.432 192.315 109.88 192.763 110.432 192.763H113.191C113.743 192.763 114.191 192.315 114.191 191.763V189.004ZM107.101 184.673C106.548 184.673 106.101 185.12 106.101 185.673V195.095C106.101 195.647 106.548 196.095 107.101 196.095H116.522C117.075 196.095 117.522 195.647 117.522 195.095V185.673C117.522 185.12 117.075 184.673 116.522 184.673H107.101Z" fill="#8F34FF"/>
<path fill-rule="evenodd" clip-rule="evenodd" d="M122.754 180.438C122.754 179.886 122.306 179.438 121.754 179.438H118.994C118.442 179.438 117.994 179.886 117.994 180.438V183.197C117.994 183.749 118.442 184.197 118.994 184.197H121.754C122.306 184.197 122.754 183.749 122.754 183.197V180.438ZM115.663 176.106C115.111 176.106 114.663 176.554 114.663 177.106V186.528C114.663 187.081 115.111 187.528 115.663 187.528H125.085C125.637 187.528 126.085 187.081 126.085 186.528V177.106C126.085 176.554 125.637 176.106 125.085 176.106H115.663Z" fill="#8F34FF"/>
<path fill-rule="evenodd" clip-rule="evenodd" d="M122.754 189.004C122.754 188.452 122.306 188.004 121.754 188.004H118.994C118.442 188.004 117.994 188.452 117.994 189.004V191.763C117.994 192.315 118.442 192.763 118.994 192.763H121.754C122.306 192.763 122.754 192.315 122.754 191.763V189.004ZM115.663 184.673C115.111 184.673 114.663 185.12 114.663 185.673V195.095C114.663 195.647 115.111 196.095 115.663 196.095H125.085C125.637 196.095 126.085 195.647 126.085 195.095V185.673C126.085 185.12 125.637 184.673 125.085 184.673H115.663Z" fill="#8F34FF"/>
<path d="M161.396 20.784C161.396 21.52 161.172 22.192 160.724 22.8C160.308 23.376 159.524 23.664 158.372 23.664H142.34C141.124 23.664 140.516 22.864 140.516 21.264C140.548 19.632 141.156 18.816 142.34 18.816H155.252C155.476 18.816 155.604 18.768 155.636 18.672C155.668 18.576 155.684 18.464 155.684 18.336V14.4H145.7C144.516 14.4 143.908 13.6 143.876 12C143.876 10.368 144.484 9.552 145.7 9.552H168.836V6.432C168.836 6.304 168.82 6.192 168.788 6.09601C168.756 6 168.628 5.952 168.404 5.952H146.42C145.236 5.952 144.628 5.152 144.596 3.552C144.596 1.92 145.204 1.104 146.42 1.104H171.524C172.676 1.104 173.46 1.408 173.876 2.016C174.324 2.592 174.548 3.248 174.548 3.984V20.16C174.548 21.696 173.588 22.464 171.668 22.464C169.78 22.464 168.836 21.696 168.836 20.16V14.4H161.396V20.784ZM177.524 40.176C177.524 41.712 176.564 42.48 174.644 42.48C172.756 42.48 171.812 41.712 171.812 40.176V31.68C171.812 31.552 171.796 31.44 171.764 31.344C171.732 31.248 171.604 31.2 171.38 31.2H150.596C149.412 31.2 148.804 30.4 148.772 28.8C148.772 27.168 149.38 26.352 150.596 26.352H174.5C175.652 26.352 176.436 26.656 176.852 27.264C177.3 27.84 177.524 28.496 177.524 29.232V40.176Z" fill="#8F34FF"/>
<path d="M121.726 20.784C121.726 21.52 121.502 22.192 121.054 22.8C120.638 23.376 119.854 23.664 118.702 23.664H102.67C101.454 23.664 100.846 22.864 100.846 21.264C100.878 19.632 101.486 18.816 102.67 18.816H115.582C115.806 18.816 115.934 18.768 115.966 18.672C115.998 18.576 116.014 18.464 116.014 18.336V14.4H106.03C104.846 14.4 104.238 13.6 104.206 12C104.206 10.368 104.814 9.552 106.03 9.552H129.166V6.432C129.166 6.304 129.15 6.192 129.118 6.09601C129.086 6 128.958 5.952 128.734 5.952H106.75C105.566 5.952 104.958 5.152 104.926 3.552C104.926 1.92 105.534 1.104 106.75 1.104H131.854C133.006 1.104 133.79 1.408 134.206 2.016C134.654 2.592 134.878 3.248 134.878 3.984V20.16C134.878 21.696 133.918 22.464 131.998 22.464C130.11 22.464 129.166 21.696 129.166 20.16V14.4H121.726V20.784ZM137.854 40.176C137.854 41.712 136.894 42.48 134.974 42.48C133.086 42.48 132.142 41.712 132.142 40.176V31.68C132.142 31.552 132.126 31.44 132.094 31.344C132.062 31.248 131.934 31.2 131.71 31.2H110.926C109.742 31.2 109.134 30.4 109.102 28.8C109.102 27.168 109.71 26.352 110.926 26.352H134.83C135.982 26.352 136.766 26.656 137.182 27.264C137.63 27.84 137.854 28.496 137.854 29.232V40.176Z" fill="#8F34FF"/>
<path d="M84.3737 19.584C85.3977 21.088 85.0937 22.336 83.4617 23.328C81.8617 24.288 80.5977 24.08 79.6697 22.704L71.9417 11.568L62.4857 32.688C61.8457 34.16 60.6457 34.576 58.8857 33.936C57.1257 33.264 56.5977 32.096 57.3017 30.432L68.2457 5.952H60.0857C58.9017 5.952 58.2937 5.152 58.2617 3.552C58.2617 1.92 58.8697 1.104 60.0857 1.104H82.5497C83.7977 1.104 84.4057 1.92 84.3737 3.552C84.3737 5.152 83.7657 5.952 82.5497 5.952H74.9657L84.3737 19.584ZM99.3017 39.648C99.2697 40.384 99.0457 41.04 98.6297 41.616C98.2137 42.224 97.4297 42.528 96.2777 42.528H73.8137C72.6617 42.528 71.8617 42.224 71.4137 41.616C70.9977 41.04 70.7897 40.384 70.7897 39.648V24.72C70.7897 23.184 71.7337 22.416 73.6217 22.416C75.5417 22.416 76.5017 23.184 76.5017 24.72V37.2C76.5017 37.328 76.5177 37.44 76.5497 37.536C76.5817 37.632 76.7097 37.68 76.9337 37.68H93.1577C93.3817 37.68 93.5097 37.632 93.5417 37.536C93.5737 37.44 93.5897 37.328 93.5897 37.2V32.928H79.0457C77.8617 32.928 77.2537 32.128 77.2217 30.528C77.2217 28.896 77.8297 28.08 79.0457 28.08H93.5897V24.72C93.5897 23.184 94.5337 22.416 96.4217 22.416C98.3417 22.416 99.3017 23.184 99.3017 24.72V39.648ZM95.8937 20.016C95.8937 21.552 94.9337 22.32 93.0137 22.32C91.1257 22.32 90.1817 21.552 90.1817 20.016V2.304C90.1817 0.768001 91.1257 0 93.0137 0C94.9337 0 95.8937 0.768001 95.8937 2.304V20.016Z" fill="#8F34FF"/>
<path d="M6.25781 63.9808C6.25781 66.0199 7.96289 67.8304 10.2832 68.5336L9.58008 69.6234C7.75195 69.0433 6.28418 67.7865 5.57227 66.1781C4.88672 67.9008 3.41016 69.2455 1.54688 69.8871L0.826172 68.7972C3.18164 68.059 4.86914 66.1254 4.86914 63.9808V63.5765H1.21289V62.4515H9.86133V63.5765H6.25781V63.9808ZM13.5352 61.3969V69.8519H12.1641V61.3969H13.5352ZM4.78125 70.6254V72.5238H12.1641V70.6254H13.5352V76.8129H3.41016V70.6254H4.78125ZM4.78125 75.6879H12.1641V73.6312H4.78125V75.6879ZM27.8663 61.3969V66.1605H30.2217V67.3207H27.8663V72.9281H26.4952V61.3969H27.8663ZM28.587 75.5297V76.6898H18.0928V71.7328H19.4463V75.5297H28.587ZM20.044 62.5043C22.3819 62.5043 24.1397 64.0863 24.1573 66.3539C24.1397 68.6215 22.3819 70.2035 20.044 70.2035C17.7061 70.2035 15.9307 68.6215 15.9483 66.3539C15.9307 64.0863 17.7061 62.5043 20.044 62.5043ZM20.044 63.7172C18.4971 63.7172 17.2842 64.807 17.3018 66.3539C17.2842 67.9008 18.4971 68.9906 20.044 68.9906C21.626 68.9906 22.8038 67.9008 22.8038 66.3539C22.8038 64.807 21.626 63.7172 20.044 63.7172ZM35.0958 61.9769C37.4337 61.9945 39.1388 63.4008 39.1388 65.4398C39.1388 67.4789 37.4337 68.8851 35.0958 68.8851C32.7227 68.8851 31.0352 67.4789 31.0352 65.4398C31.0352 63.4008 32.7227 61.9945 35.0958 61.9769ZM35.0958 63.1371C33.5313 63.1371 32.3712 64.0863 32.3888 65.4398C32.3712 66.8109 33.5313 67.7601 35.0958 67.7601C36.6427 67.7601 37.8028 66.8109 37.8028 65.4398C37.8028 64.0863 36.6427 63.1371 35.0958 63.1371ZM43.5684 61.3969V69.4301H42.1973V61.3969H43.5684ZM43.5684 70.1859V73.9476H34.797V75.7054H44.1309V76.8129H33.4434V72.9105H42.1973V71.2933H33.4083V70.1859H43.5684ZM48.2491 74.4222L46.878 79.2035H45.5773L46.5441 74.4222H48.2491ZM66.6105 61.3969V77.059H65.2219V61.3969H66.6105ZM58.2961 62.6097C60.6164 62.6273 62.2863 64.7367 62.2863 68.059C62.2863 71.3812 60.6164 73.4906 58.2961 73.4906C55.9582 73.4906 54.3059 71.3812 54.3059 68.059C54.3059 64.7367 55.9582 62.6273 58.2961 62.6097ZM58.2961 63.8402C56.7316 63.8578 55.6418 65.5101 55.6418 68.059C55.6418 70.6078 56.7316 72.2601 58.2961 72.2601C59.8605 72.2601 60.9504 70.6078 60.9504 68.059C60.9504 65.5101 59.8605 63.8578 58.2961 63.8402ZM82.1018 61.3969V77.0238H80.7834V61.3969H82.1018ZM78.9377 61.7836V76.2152H77.637V68.1644H75.0002V67.0394H77.637V61.7836H78.9377ZM73.3303 65.8617C73.3303 68.5687 74.5432 71.2582 76.7053 72.5062L75.8616 73.5258C74.3235 72.6029 73.2336 70.9154 72.6975 68.9203C72.1262 71.0736 70.9924 72.9105 69.428 73.8949L68.5491 72.8578C70.7288 71.557 71.9944 68.7094 71.9944 65.8617V64.3851H68.9885V63.2426H76.1955V64.3851H73.3303V65.8617ZM100.2 61.9418V63.1898C100.2 64.5433 100.2 66.0902 99.7777 68.1469L98.4066 68.0414C98.5999 67.1625 98.7054 66.389 98.7757 65.6859L89.2484 66.1429L89.055 64.9652L98.8284 64.6664C98.846 64.1566 98.846 63.6644 98.846 63.1898V63.0668H89.4417V61.9418H100.2ZM101.975 69.0609V70.1859H87.7542V69.0609H93.555V66.8988H94.9437V69.0609H101.975ZM100.217 71.8383V76.9535H98.8284V72.9457H89.2659V71.8383H100.217ZM115.216 61.9418V63.1898C115.216 64.5433 115.216 66.0902 114.794 68.1469L113.423 68.0414C113.617 67.1625 113.722 66.389 113.792 65.6859L104.265 66.1429L104.072 64.9652L113.845 64.6664C113.863 64.1566 113.863 63.6644 113.863 63.1898V63.0668H104.458V61.9418H115.216ZM116.992 69.0609V70.1859H102.771V69.0609H108.572V66.8988H109.96V69.0609H116.992ZM115.234 71.8383V76.9535H113.845V72.9457H104.283V71.8383H115.234ZM120.301 62.8734L120.178 72.014H118.702L118.579 62.8734H120.301ZM119.44 75.7054C118.825 75.7054 118.297 75.1957 118.315 74.5629C118.297 73.9476 118.825 73.4379 119.44 73.4379C120.055 73.4379 120.565 73.9476 120.565 74.5629C120.565 75.1957 120.055 75.7054 119.44 75.7054ZM140.456 67.6371V68.7972H137.924V77.0238H136.553V61.3969H137.924V67.6371H140.456ZM127.852 62.9437V71.891C130.137 71.8822 132.466 71.7064 135.041 71.1703L135.217 72.348C132.528 72.8929 130.102 73.0511 127.729 73.0511H126.481V62.9437H127.852ZM153.468 66.6703V67.8129H142.693V62.2054H144.064V66.6703H153.468ZM155.156 70.1683V71.3285H148.617V77.0238H147.246V71.3285H140.847V70.1683H155.156ZM160.065 62.6097C162.192 62.6273 163.721 64.4467 163.95 67.3734H167.448V61.3969H168.819V77.059H167.448V68.516H163.967C163.8 71.5746 162.245 73.4906 160.065 73.4906C157.762 73.4906 156.145 71.3812 156.145 68.059C156.145 64.7367 157.762 62.6273 160.065 62.6097ZM160.065 63.8402C158.518 63.8578 157.463 65.5101 157.463 68.059C157.463 70.6078 158.518 72.2601 160.065 72.2601C161.594 72.2601 162.667 70.6078 162.667 68.059C162.667 65.5101 161.594 63.8578 160.065 63.8402ZM187.479 68.9203V70.0629H176.686V62.8558H187.321V63.9984H178.057V68.9203H187.479ZM189.167 73.7367V74.8969H174.858V73.7367H189.167ZM197.838 62.1703V65.9847H192.037V67.9183C194.999 67.9183 197.003 67.8392 199.455 67.4613L199.578 68.5336C197.064 68.9379 195.007 69.0258 191.931 69.0258H190.666V64.9652H196.484V63.2426H190.613V62.1703H197.838ZM202.777 70.3265V74.0004H194.023V75.7406H203.34V76.848H192.652V72.9633H201.371V71.4164H192.617V70.3265H202.777ZM202.777 61.3969V69.641H201.406V61.3969H202.777ZM218.268 61.3969V77.0238H216.95V61.3969H218.268ZM214.981 61.8187V76.2328H213.663V68.9379H210.358C209.4 70.7572 207.897 72.3656 205.717 73.6488L204.909 72.6469C208.31 70.6342 210.015 67.8129 210.27 64.5433H205.577V63.4008H211.641C211.633 64.9388 211.386 66.4242 210.868 67.8129H213.663V61.8187H214.981ZM234.217 73.8597V75.0199H219.908V73.8597H223.459V69.641C222.123 68.9467 221.314 67.8217 221.314 66.4066C221.314 63.9808 223.687 62.3988 227.027 62.3812C230.367 62.3988 232.74 63.9808 232.74 66.4066C232.74 67.7953 231.958 68.9115 230.666 69.6058V73.8597H234.217ZM227.027 63.5238C224.461 63.5062 222.65 64.6664 222.65 66.4066C222.65 68.1469 224.461 69.3246 227.027 69.3246C229.576 69.3246 231.404 68.1469 231.404 66.4066C231.404 64.6664 229.576 63.5062 227.027 63.5238ZM224.812 73.8597H229.277V70.1332C228.6 70.3177 227.844 70.4144 227.027 70.4144C226.227 70.4144 225.48 70.3265 224.812 70.1508V73.8597Z" fill="black"/>
</svg>
