<svg width="334" height="57" viewBox="0 0 334 57" fill="none" xmlns="http://www.w3.org/2000/svg">
<rect width="334" height="57" rx="15" fill="#8F34FF"/>
<path d="M145.578 24.4297C145.578 25.6797 145.424 26.8438 145.117 27.9219C144.815 29 144.357 29.9505 143.742 30.7734C143.128 31.5911 142.362 32.2109 141.445 32.6328L140.234 30.9688C141.042 30.625 141.721 30.1198 142.273 29.4531C142.831 28.7865 143.247 28.0208 143.523 27.1562C143.799 26.2917 143.938 25.3828 143.938 24.4297V22.3047H145.578V24.4297ZM145.961 24.4297C145.961 25.3359 146.094 26.2005 146.359 27.0234C146.63 27.8411 147.036 28.5729 147.578 29.2188C148.12 29.8646 148.779 30.3516 149.555 30.6797L148.383 32.2812C147.503 31.8802 146.755 31.2865 146.141 30.5C145.531 29.7135 145.076 28.8021 144.773 27.7656C144.471 26.7292 144.32 25.6172 144.32 24.4297V22.3047H145.961V24.4297ZM152.328 35.4766H150.305V21.2031H152.328V35.4766ZM158.637 23.5938C158.637 24.5 158.486 25.3516 158.184 26.1484C157.887 26.9401 157.437 27.6302 156.833 28.2188C156.234 28.8021 155.494 29.2422 154.614 29.5391L153.567 28C154.322 27.75 154.958 27.3958 155.473 26.9375C155.989 26.474 156.372 25.9557 156.622 25.3828C156.877 24.8047 157.004 24.2083 157.004 23.5938V22.6719H158.637V23.5938ZM159.02 23.6094C159.02 24.1875 159.137 24.7474 159.372 25.2891C159.611 25.8255 159.978 26.3099 160.473 26.7422C160.968 27.1745 161.585 27.513 162.325 27.7578L161.325 29.2969C160.46 29.0156 159.734 28.5911 159.145 28.0234C158.562 27.4505 158.124 26.7891 157.833 26.0391C157.541 25.2839 157.395 24.474 157.395 23.6094V22.6719H159.02V23.6094ZM161.856 23.6406H154.106V22.0469H161.856V23.6406ZM165.051 29.7969H163.059V21.2031H165.051V29.7969ZM166.973 26.3203H164.489V24.6641H166.973V26.3203ZM165.051 35.4375H163.059V31.9922H155.481V30.4062H165.051V35.4375ZM178.337 35.4375H176.368V21.2031H178.337V35.4375ZM180.446 28.4219H177.899V26.7891H180.446V28.4219ZM175.399 24.9375H167.048V23.3359H175.399V24.9375ZM171.259 25.7266C171.951 25.7266 172.574 25.8724 173.126 26.1641C173.678 26.4505 174.11 26.8516 174.423 27.3672C174.741 27.8828 174.899 28.4661 174.899 29.1172C174.899 29.7682 174.741 30.3516 174.423 30.8672C174.11 31.3828 173.678 31.7865 173.126 32.0781C172.574 32.3646 171.951 32.5078 171.259 32.5078C170.566 32.5078 169.944 32.3646 169.392 32.0781C168.839 31.7865 168.407 31.3828 168.095 30.8672C167.782 30.3516 167.626 29.7682 167.626 29.1172C167.626 28.4661 167.782 27.8828 168.095 27.3672C168.407 26.8516 168.839 26.4505 169.392 26.1641C169.944 25.8724 170.566 25.7266 171.259 25.7266ZM171.259 27.3516C170.931 27.3516 170.634 27.4245 170.368 27.5703C170.108 27.7109 169.902 27.9167 169.751 28.1875C169.605 28.4531 169.532 28.763 169.532 29.1172C169.532 29.4766 169.605 29.7891 169.751 30.0547C169.902 30.3203 170.108 30.526 170.368 30.6719C170.634 30.8125 170.931 30.8828 171.259 30.8828C171.597 30.8828 171.897 30.8125 172.157 30.6719C172.418 30.526 172.618 30.3203 172.759 30.0547C172.905 29.7891 172.978 29.4766 172.978 29.1172C172.978 28.763 172.905 28.4531 172.759 28.1875C172.618 27.9167 172.418 27.7109 172.157 27.5703C171.897 27.4245 171.597 27.3516 171.259 27.3516ZM172.251 23.9453H170.267V21.4297H172.251V23.9453ZM192.419 35.4375H190.396V21.2031H192.419V35.4375ZM188.162 22.7031C188.162 24.2292 187.956 25.6146 187.544 26.8594C187.138 28.099 186.448 29.2396 185.474 30.2812C184.5 31.3177 183.195 32.224 181.56 33L180.513 31.4062C181.883 30.7604 182.982 30.0339 183.81 29.2266C184.638 28.4193 185.24 27.513 185.615 26.5078C185.99 25.5026 186.177 24.3516 186.177 23.0547V22.7031H188.162ZM187.091 24.2734H181.271V22.7031H187.091V24.2734Z" fill="white"/>
</svg>
