<svg width="18" height="18" viewBox="0 0 18 18" fill="none" xmlns="http://www.w3.org/2000/svg">
<mask id="mask0_107_6156" style="mask-type:alpha" maskUnits="userSpaceOnUse" x="0" y="0" width="18" height="18">
<rect width="18" height="18" fill="#D9D9D9"/>
</mask>
<g mask="url(#mask0_107_6156)">
<path d="M9.45039 5.40002C7.21364 5.40002 5.40039 7.21327 5.40039 9.45002C5.40039 11.6868 7.21364 13.5 9.45039 13.5C11.6871 13.5 13.5004 11.6868 13.5004 9.45002C13.5004 7.21327 11.6871 5.40002 9.45039 5.40002Z" fill="#8F34FF"/>
<path fill-rule="evenodd" clip-rule="evenodd" d="M9 0C9.45188 0 9.81818 0.366316 9.81818 0.818182V1.63636C9.81818 2.08823 9.45188 2.45455 9 2.45455C8.54812 2.45455 8.18182 2.08823 8.18182 1.63636V0.818182C8.18182 0.366316 8.54812 0 9 0ZM1.876 1.876C2.19553 1.55648 2.71357 1.55648 3.03309 1.876L4.26036 3.10327C4.57988 3.4228 4.57988 3.94084 4.26036 4.26036C3.94084 4.57988 3.4228 4.57988 3.10327 4.26036L1.876 3.03309C1.55648 2.71357 1.55648 2.19553 1.876 1.876ZM16.124 1.876C16.4435 2.19553 16.4435 2.71357 16.124 3.03309L14.8967 4.26036C14.5772 4.57988 14.0591 4.57988 13.7396 4.26036C13.4201 3.94084 13.4201 3.4228 13.7396 3.10327L14.9669 1.876C15.2864 1.55648 15.8045 1.55648 16.124 1.876ZM0 9C0 8.54812 0.366316 8.18182 0.818182 8.18182H1.63636C2.08823 8.18182 2.45455 8.54812 2.45455 9C2.45455 9.45188 2.08823 9.81818 1.63636 9.81818H0.818182C0.366316 9.81818 0 9.45188 0 9ZM15.5455 9C15.5455 8.54812 15.9118 8.18182 16.3636 8.18182H17.1818C17.6337 8.18182 18 8.54812 18 9C18 9.45188 17.6337 9.81818 17.1818 9.81818H16.3636C15.9118 9.81818 15.5455 9.45188 15.5455 9ZM4.26036 13.7396C4.57988 14.0591 4.57988 14.5772 4.26036 14.8967L3.03309 16.124C2.71357 16.4435 2.19553 16.4435 1.876 16.124C1.55648 15.8045 1.55648 15.2864 1.876 14.9669L3.10327 13.7396C3.4228 13.4201 3.94084 13.4201 4.26036 13.7396ZM13.7396 13.7396C14.0591 13.4201 14.5772 13.4201 14.8967 13.7396L16.124 14.9669C16.4435 15.2864 16.4435 15.8045 16.124 16.124C15.8045 16.4435 15.2864 16.4435 14.9669 16.124L13.7396 14.8967C13.4201 14.5772 13.4201 14.0591 13.7396 13.7396ZM9 15.5455C9.45188 15.5455 9.81818 15.9118 9.81818 16.3636V17.1818C9.81818 17.6337 9.45188 18 9 18C8.54812 18 8.18182 17.6337 8.18182 17.1818V16.3636C8.18182 15.9118 8.54812 15.5455 9 15.5455Z" fill="#8F34FF"/>
</g>
</svg>
