<svg width="177" height="17" viewBox="0 0 177 17" fill="none" xmlns="http://www.w3.org/2000/svg">
<path d="M9.89648 1.62305V3.1875H6.55664C6.58301 5.05078 7.9541 6.83496 10.459 7.54688L9.47461 9.07617C7.6377 8.53125 6.31055 7.37988 5.58984 5.91211C4.87793 7.49414 3.51562 8.74219 1.61719 9.33984L0.632812 7.81055C3.17285 7.06348 4.54395 5.15625 4.58789 3.1875H1.16016V1.62305H9.89648ZM13.7637 0.673828V9.28711H11.7949V0.673828H13.7637ZM5.18555 9.99023V11.625H11.8125V9.99023H13.7637V16.3711H3.25195V9.99023H5.18555ZM5.18555 14.7891H11.8125V13.1367H5.18555V14.7891ZM28.0772 0.673828V5.33203H30.292V6.94922H28.0772V12.293H26.126V0.673828H28.0772ZM28.71 14.666V16.248H17.8995V11.0801H19.8506V14.666H28.71ZM20.0088 1.72852C22.417 1.72852 24.2803 3.39844 24.2979 5.73633C24.2803 8.03906 22.417 9.72656 20.0088 9.72656C17.6006 9.72656 15.7022 8.03906 15.7198 5.73633C15.7022 3.39844 17.6006 1.72852 20.0088 1.72852ZM20.0088 3.43359C18.6729 3.43359 17.6182 4.33008 17.6358 5.73633C17.6182 7.10742 18.6729 8.00391 20.0088 8.00391C21.3448 8.00391 22.3819 7.10742 22.3819 5.73633C22.3819 4.33008 21.3448 3.43359 20.0088 3.43359ZM35.0606 1.18359C37.4688 1.18359 39.2618 2.67773 39.2794 4.76953C39.2618 6.87891 37.4688 8.35547 35.0606 8.35547C32.6348 8.35547 30.8419 6.87891 30.8419 4.76953C30.8419 2.67773 32.6348 1.18359 35.0606 1.18359ZM35.0606 2.80078C33.7247 2.80078 32.7403 3.55664 32.7403 4.76953C32.7403 6 33.7247 6.77344 35.0606 6.77344C36.3966 6.77344 37.3809 6 37.3809 4.76953C37.3809 3.55664 36.3966 2.80078 35.0606 2.80078ZM43.797 0.673828V8.70703H41.8282V0.673828H43.797ZM43.797 9.39258V13.541H35.2013V14.8242H44.2716V16.3711H33.2852V12.0996H41.8458V10.9219H33.2501V9.39258H43.797ZM52.8019 0.919922C56.423 0.919922 58.5148 1.88672 58.5323 3.64453C58.5148 5.41992 56.423 6.36914 52.8019 6.38672C49.1808 6.36914 47.0714 5.41992 47.0714 3.64453C47.0714 1.88672 49.1808 0.919922 52.8019 0.919922ZM52.8019 2.36133C50.3761 2.36133 49.1105 2.81836 49.128 3.64453C49.1105 4.52344 50.3761 4.92773 52.8019 4.92773C55.2628 4.92773 56.5109 4.52344 56.5109 3.64453C56.5109 2.81836 55.2628 2.36133 52.8019 2.36133ZM60.0616 7.23047V8.79492H45.5773V7.23047H60.0616ZM58.2511 9.86719V13.752H49.2159V14.9297H58.6905V16.4238H47.2999V12.3633H56.3351V11.3086H47.2823V9.86719H58.2511ZM111.116 0.673828V10.1133H109.164V6.22852H106.457V4.62891H109.164V0.673828H111.116ZM105.737 10.5176C109.112 10.5176 111.168 11.625 111.168 13.541C111.168 15.457 109.112 16.5645 105.737 16.5645C102.379 16.5645 100.323 15.457 100.34 13.541C100.323 11.625 102.379 10.5176 105.737 10.5176ZM105.737 12.0117C103.522 12.0117 102.274 12.5391 102.274 13.541C102.274 14.5254 103.522 15.0527 105.737 15.0527C107.951 15.0527 109.217 14.5254 109.217 13.541C109.217 12.5391 107.951 12.0117 105.737 12.0117ZM103.645 3.39844C103.645 5.33203 104.928 7.2832 107.389 8.10938L106.405 9.65625C104.638 9.05859 103.381 7.8457 102.696 6.35156C101.993 8.04785 100.665 9.40137 98.7757 10.0781L97.7562 8.53125C100.305 7.65234 101.659 5.50781 101.659 3.41602V3.29297H98.3538V1.71094H106.932V3.29297H103.645V3.39844ZM126.062 0.673828V16.582H124.128V0.673828H126.062ZM121.175 2.0625V8.02148H115.708V11.2207C118.213 11.2031 120.375 11.0801 122.845 10.6582L123.021 12.2578C120.314 12.7324 117.941 12.8203 115.093 12.8203H113.704V6.47461H119.189V3.64453H113.687V2.0625H121.175ZM141.43 0.691406V10.4824H139.567V6.45703H138.055V10.2891H136.227V0.919922H138.055V4.85742H139.567V0.691406H141.43ZM135.664 2.30859V3.85547H127.754V2.30859H130.76V0.761719H132.694V2.30859H135.664ZM131.727 4.45312C133.748 4.4707 135.172 5.56055 135.19 7.21289C135.172 8.84766 133.748 9.97266 131.727 9.97266C129.741 9.97266 128.299 8.84766 128.317 7.21289C128.299 5.56055 129.741 4.4707 131.727 4.45312ZM131.727 5.87695C130.743 5.87695 130.057 6.35156 130.057 7.21289C130.057 8.03906 130.725 8.54883 131.727 8.54883C132.729 8.54883 133.414 8.03906 133.414 7.21289C133.414 6.35156 132.729 5.87695 131.727 5.87695ZM133.766 11.3613C133.766 12.5918 134.355 13.8574 135.682 14.6484C137.027 13.8047 137.651 12.4688 137.668 11.3613V10.9746H139.602V11.3613C139.602 12.873 140.604 14.332 142.678 14.8945L141.764 16.3711C140.208 15.8789 139.171 14.8945 138.618 13.6641C138.117 14.877 137.185 15.958 135.717 16.5117C134.223 15.9844 133.283 14.9648 132.782 13.752C132.202 14.9121 131.164 15.8701 129.688 16.3711L128.774 14.8945C130.813 14.2793 131.832 12.7852 131.832 11.3613V10.9746H133.766V11.3613ZM147.201 1.83398C149.354 1.83398 150.945 3.62695 151.226 6.52734H154.249V0.673828H156.183V16.582H154.249V8.10938H151.244C151.033 11.1768 149.415 13.0664 147.201 13.0664C144.81 13.0664 143.122 10.9043 143.122 7.44141C143.122 4.01367 144.81 1.83398 147.201 1.83398ZM147.201 3.5918C145.882 3.5918 144.986 5.01562 145.003 7.44141C144.986 9.88477 145.882 11.3086 147.201 11.3086C148.519 11.3086 149.398 9.88477 149.415 7.44141C149.398 5.01562 148.519 3.5918 147.201 3.5918ZM172.395 13.0312V14.6309H157.875V13.0312H161.233V9.00586C159.967 8.28516 159.203 7.15137 159.211 5.73633C159.194 3.20508 161.69 1.53516 165.1 1.53516C168.528 1.53516 171.024 3.20508 171.024 5.73633C171.024 7.125 170.286 8.24121 169.055 8.9707V13.0312H172.395ZM165.1 3.08203C162.727 3.08203 161.11 4.08398 161.127 5.73633C161.11 7.37109 162.727 8.39062 165.1 8.39062C167.473 8.39062 169.108 7.37109 169.108 5.73633C169.108 4.08398 167.473 3.08203 165.1 3.08203ZM163.166 13.0312H167.069V9.70898C166.462 9.84961 165.803 9.91992 165.1 9.91992C164.415 9.91992 163.764 9.84961 163.166 9.72656V13.0312ZM176.162 2.27344L175.968 11.2559H173.982L173.771 2.27344H176.162ZM174.984 15.1406C174.228 15.1406 173.613 14.5254 173.613 13.7695C173.613 13.0312 174.228 12.416 174.984 12.416C175.705 12.416 176.337 13.0312 176.337 13.7695C176.337 14.5254 175.705 15.1406 174.984 15.1406Z" fill="#312F34"/>
<path d="M71.898 7.944C71.898 8.22 71.814 8.472 71.646 8.7C71.49 8.916 71.196 9.024 70.764 9.024H64.752C64.296 9.024 64.068 8.724 64.068 8.124C64.08 7.512 64.308 7.206 64.752 7.206H69.594C69.678 7.206 69.726 7.188 69.738 7.152C69.75 7.116 69.756 7.074 69.756 7.026V5.55H66.012C65.568 5.55 65.34 5.25 65.328 4.65C65.328 4.038 65.556 3.732 66.012 3.732H74.688V2.562C74.688 2.514 74.682 2.472 74.67 2.436C74.658 2.4 74.61 2.382 74.526 2.382H66.282C65.838 2.382 65.61 2.082 65.598 1.482C65.598 0.869999 65.826 0.563999 66.282 0.563999H75.696C76.128 0.563999 76.422 0.677999 76.578 0.905999C76.746 1.122 76.83 1.368 76.83 1.644V7.71C76.83 8.286 76.47 8.574 75.75 8.574C75.042 8.574 74.688 8.286 74.688 7.71V5.55H71.898V7.944ZM77.946 15.216C77.946 15.792 77.586 16.08 76.866 16.08C76.158 16.08 75.804 15.792 75.804 15.216V12.03C75.804 11.982 75.798 11.94 75.786 11.904C75.774 11.868 75.726 11.85 75.642 11.85H67.848C67.404 11.85 67.176 11.55 67.164 10.95C67.164 10.338 67.392 10.032 67.848 10.032H76.812C77.244 10.032 77.538 10.146 77.694 10.374C77.862 10.59 77.946 10.836 77.946 11.112V15.216ZM86.7741 7.944C86.7741 8.22 86.6901 8.472 86.5221 8.7C86.3661 8.916 86.0721 9.024 85.6401 9.024H79.6281C79.1721 9.024 78.9441 8.724 78.9441 8.124C78.9561 7.512 79.1841 7.206 79.6281 7.206H84.4701C84.5541 7.206 84.6021 7.188 84.6141 7.152C84.6261 7.116 84.6321 7.074 84.6321 7.026V5.55H80.8881C80.4441 5.55 80.2161 5.25 80.2041 4.65C80.2041 4.038 80.4321 3.732 80.8881 3.732H89.5641V2.562C89.5641 2.514 89.5581 2.472 89.5461 2.436C89.5341 2.4 89.4861 2.382 89.4021 2.382H81.1581C80.7141 2.382 80.4861 2.082 80.4741 1.482C80.4741 0.869999 80.7021 0.563999 81.1581 0.563999H90.5721C91.0041 0.563999 91.2981 0.677999 91.4541 0.905999C91.6221 1.122 91.7061 1.368 91.7061 1.644V7.71C91.7061 8.286 91.3461 8.574 90.6261 8.574C89.9181 8.574 89.5641 8.286 89.5641 7.71V5.55H86.7741V7.944ZM92.8221 15.216C92.8221 15.792 92.4621 16.08 91.7421 16.08C91.0341 16.08 90.6801 15.792 90.6801 15.216V12.03C90.6801 11.982 90.6741 11.94 90.6621 11.904C90.6501 11.868 90.6021 11.85 90.5181 11.85H82.7241C82.2801 11.85 82.0521 11.55 82.0401 10.95C82.0401 10.338 82.2681 10.032 82.7241 10.032H91.6881C92.1201 10.032 92.4141 10.146 92.5701 10.374C92.7381 10.59 92.8221 10.836 92.8221 11.112V15.216Z" fill="#8F34FF"/>
</svg>
