<svg width="94" height="17" viewBox="0 0 94 17" fill="none" xmlns="http://www.w3.org/2000/svg">
<path d="M7.75195 1.69336C11.127 1.71094 13.5703 3.36328 13.5703 5.87695C13.5703 8.24121 11.5225 9.79688 8.57812 10.043V13.1367H14.9941V14.5254H0.580078V13.1367H6.92578V10.043C3.99902 9.79688 1.95117 8.24121 1.95117 5.87695C1.95117 3.36328 4.39453 1.71094 7.75195 1.69336ZM7.75195 3.06445C5.32617 3.04688 3.56836 4.17188 3.56836 5.87695C3.56836 7.65234 5.32617 8.74219 7.75195 8.75977C10.1953 8.74219 11.9531 7.65234 11.9531 5.87695C11.9531 4.17188 10.1953 3.04688 7.75195 3.06445ZM28.3057 4.33008V5.68359H17.4952V0.972656H19.1299V4.33008H28.3057ZM29.9932 7.07227V8.4082H15.5791V7.07227H29.9932ZM28.1827 9.67383V13.5234H19.042V14.9824H28.7276V16.3008H17.3721V12.293H26.5303V10.9746H17.337V9.67383H28.1827ZM35.7462 1.86914C38.2423 1.85156 40.0177 3.39844 40.0352 5.61328C40.0177 7.82812 38.2423 9.375 35.7462 9.375C33.2677 9.375 31.4395 7.82812 31.4571 5.61328C31.4395 3.39844 33.2677 1.85156 35.7462 1.86914ZM35.7462 3.31055C34.2169 3.31055 33.0919 4.22461 33.1095 5.61328C33.0919 7.00195 34.2169 7.91602 35.7462 7.91602C37.2755 7.91602 38.4005 7.00195 38.4005 5.61328C38.4005 4.22461 37.2755 3.31055 35.7462 3.31055ZM43.6388 0.744141V16.5293H41.9688V0.744141H43.6388ZM30.7013 11.748C33.5665 11.748 37.5391 11.7129 40.9845 11.2207L41.1075 12.4336C37.5391 13.1191 33.7247 13.1367 30.9122 13.1367L30.7013 11.748ZM55.3205 3.25781C55.3205 5.20898 56.8498 7.03711 59.2755 7.74023L58.4318 9.04102C56.5949 8.4873 55.2062 7.2832 54.4943 5.73633C53.7824 7.38867 52.3761 8.69824 50.4865 9.32227L49.6427 8.00391C52.0861 7.24805 53.6154 5.33203 53.633 3.25781V3.08203H50.0998V1.72852H58.7834V3.08203H55.3205V3.25781ZM62.5451 0.744141V9.26953H60.8752V0.744141H62.5451ZM53.8791 10.0078V11.7656H60.8927V10.0078H62.5451V16.3008H52.2443V10.0078H53.8791ZM53.8791 14.9473H60.8927V13.084H53.8791V14.9473ZM76.8762 0.726562V5.4375H79.1613V6.84375H76.8762V12.3105H75.2062V0.726562H76.8762ZM77.5441 14.8066V16.1602H66.8918V11.0977H68.5617V14.8066H77.5441ZM68.9309 1.81641C71.3039 1.81641 73.1145 3.43359 73.132 5.73633C73.1145 8.02148 71.3039 9.65625 68.9309 9.65625C66.5578 9.65625 64.7297 8.02148 64.7473 5.73633C64.7297 3.43359 66.5578 1.81641 68.9309 1.81641ZM68.9309 3.27539C67.4895 3.27539 66.3645 4.27734 66.382 5.73633C66.3645 7.19531 67.4895 8.19727 68.9309 8.19727C70.3898 8.19727 71.4973 7.19531 71.4973 5.73633C71.4973 4.27734 70.3898 3.27539 68.9309 3.27539ZM83.9827 1.27148C86.3557 1.28906 88.0959 2.74805 88.1135 4.80469C88.0959 6.87891 86.3557 8.32031 83.9827 8.32031C81.592 8.32031 79.8342 6.87891 79.8342 4.80469C79.8342 2.74805 81.592 1.28906 83.9827 1.27148ZM83.9827 2.67773C82.5237 2.66016 81.4514 3.52148 81.469 4.80469C81.4514 6.10547 82.5237 6.9668 83.9827 6.9668C85.4241 6.9668 86.4963 6.10547 86.4963 4.80469C86.4963 3.52148 85.4241 2.66016 83.9827 2.67773ZM92.5784 0.744141V8.75977H90.9084V0.744141H92.5784ZM92.5784 9.48047V13.4531H83.8948V14.9648H93.1057V16.3008H82.2776V12.2051H90.926V10.8164H82.2248V9.48047H92.5784Z" fill="#312F34"/>
</svg>
